<?xml version="1.0" encoding="utf-8"?>
<!-- Generator: Adobe Illustrator 20.0.0, SVG Export Plug-In . SVG Version: 6.00 Build 0)  -->
<svg version="1.1" baseProfile="basic" xmlns="http://www.w3.org/2000/svg" xmlns:xlink="http://www.w3.org/1999/xlink" x="0px"
	 y="0px" viewBox="0 0 600 261.1" xml:space="preserve">
<g id="Livello_7" display="none">
	<rect x="-4" y="-3.2" display="inline" fill="#E4ECF0" width="609.6" height="269.8"/>
</g>
<g id="sfondo">
	<ellipse transform="matrix(0.219 -0.9757 0.9757 0.219 101.458 520.1574)" fill="#FFFFFF" cx="375.6" cy="196.7" rx="40" ry="40"/>
	<circle fill="#FFFFFF" cx="537.5" cy="64.6" r="50"/>
	<circle fill="#FFFFFF" cx="83.8" cy="65.8" r="50"/>
	<circle fill="#FFFFFF" cx="158.3" cy="178.6" r="50"/>
	<circle fill="#FFFFFF" cx="258" cy="72.3" r="40"/>
</g>
<g id="Livello_2">
	<path display="none" fill="none" stroke="#1D1D1B" stroke-miterlimit="10" d="M-258,143.5h-64.2V84.2h100.5
		C-259.5,101.8-258,143.5-258,143.5z"/>
	<path fill="none" stroke="#122945" stroke-miterlimit="10" stroke-opacity="0.4" d="M19.7,147.2v-20.5c0-4.5-3.7-8.2-8.2-8.2h0
		c-4.5,0-8.2,3.7-8.2,8.2v20.4v2.5c0,5.9,4.8,10.7,10.7,10.7h5.8h15.5c3.6,0,6.6-3,6.6-6.6v0c0-3.6-3-6.6-6.6-6.6H23.8"/>
	<circle fill="none" stroke="#122945" stroke-miterlimit="10" stroke-opacity="0.4" cx="29.8" cy="107.6" r="12"/>
	<path fill="none" stroke="#122945" stroke-miterlimit="10" stroke-opacity="0.4" d="M576.3,119.8c0.6,1.4,0.9,3,0.9,4.7
		c0,6.6-5.4,12-12,12c-6.6,0-12-5.4-12-12c0-1.7,0.3-3.2,0.9-4.7"/>
	<polygon fill="none" stroke="#122945" stroke-width="1.5" stroke-miterlimit="10" points="77.3,133.6 57.9,133.6 45,160.3 
		64.5,160.3 	"/>
	<polygon opacity="0.4" fill="none" stroke="#122945" stroke-miterlimit="10" points="66.1,127 64.1,131.4 73.9,131.4 	"/>
	<line fill="#E4ECF0" stroke="#122945" stroke-miterlimit="10" stroke-opacity="0.4" x1="23.8" y1="147.1" x2="13.9" y2="147.1"/>
	<g>
		<path fill="none" stroke="#086F5F" stroke-width="1.5" stroke-linejoin="bevel" stroke-miterlimit="10" d="M70.5,226.8l17.6-11.1
			l-8.8,19.6C79.3,235.4,80.7,225.9,70.5,226.8z"/>
		<rect x="88.1" y="206.7" opacity="0.4" fill="none" stroke="#122945" stroke-miterlimit="10" width="5.4" height="5.4"/>
		<line opacity="0.4" fill="none" stroke="#122945" stroke-miterlimit="10" x1="90.8" y1="235.3" x2="90.8" y2="215.8"/>
		<circle opacity="0.4" fill="none" stroke="#122945" stroke-miterlimit="10" cx="90.8" cy="237.1" r="2.5"/>
		<path opacity="0.4" fill="none" stroke="#122945" stroke-miterlimit="10" d="M90.8,184.2v19.5c0-13.5,15.9-36.3,40.4-40.1"/>
		<circle opacity="0.4" fill="none" stroke="#122945" stroke-miterlimit="10" cx="90.8" cy="181.7" r="2.5"/>
		<circle opacity="0.4" fill="none" stroke="#122945" stroke-miterlimit="10" cx="133.1" cy="163.6" r="1.9"/>
	</g>
	<g>
		<rect x="146.4" y="94.2" fill="none" stroke="#122945" stroke-width="1.5" stroke-miterlimit="10" width="55.9" height="41.4"/>
		<g>
			<line fill="none" stroke="#122945" stroke-width="1.5" stroke-miterlimit="10" x1="151.1" y1="125" x2="173.7" y2="125"/>
			<line fill="none" stroke="#122945" stroke-width="1.5" stroke-miterlimit="10" x1="151.1" y1="120.5" x2="173.7" y2="120.5"/>
			<line fill="none" stroke="#122945" stroke-width="1.5" stroke-miterlimit="10" x1="151.1" y1="129.4" x2="173.7" y2="129.4"/>
		</g>
		<circle opacity="0.4" fill="none" stroke="#122945" stroke-miterlimit="10" cx="157.2" cy="104.2" r="5.2"/>
		<circle fill="#122945" cx="157.2" cy="113.3" r="1.1"/>
		<circle fill="#122945" cx="174.3" cy="113.3" r="1.1"/>
		<circle fill="#122945" cx="191.5" cy="113.3" r="1.1"/>
		<circle opacity="0.4" fill="none" stroke="#122945" stroke-miterlimit="10" cx="174.3" cy="104.2" r="5.2"/>
		<circle opacity="0.4" fill="none" stroke="#122945" stroke-miterlimit="10" cx="191.5" cy="104.2" r="5.2"/>
		
			<rect x="180.2" y="119.9" fill="none" stroke="#086F5F" stroke-width="1.5" stroke-linejoin="bevel" stroke-miterlimit="10" width="16.4" height="10.1"/>
	</g>
</g>
<g id="collegameji">
	<path fill="none" stroke="#11EECC" stroke-width="1.5" stroke-miterlimit="10" d="M67.6,122v-7.6c0-5.6,4.6-10.2,10.2-10.2H138"/>
	<path fill="none" stroke="#11EECC" stroke-width="1.5" stroke-miterlimit="10" d="M179.6,141.8v14.7c0,5.6,4.6,10.2,10.2,10.2h2.4
		c5.6,0,10.2,4.6,10.2,10.2v51.2c0,5.6,4.6,10.2,10.2,10.2h1.5c5.6,0,10.2-4.6,10.2-10.2v-63.4"/>
	<line fill="none" stroke="#11EECC" stroke-width="1.5" stroke-miterlimit="10" x1="287.4" y1="131.4" x2="319" y2="131.4"/>
	<path fill="none" stroke="#11EECC" stroke-width="1.5" stroke-linejoin="bevel" stroke-miterlimit="10" stroke-dasharray="3" d="
		M396.7,91.1V79.5c0-5.6,4.6-10.2,10.2-10.2h20.2c5.6,0,10.2,4.6,10.2,10.2v37.2"/>
	<path fill="none" stroke="#11EECC" stroke-width="1.5" stroke-miterlimit="10" d="M467.6,149.5h6.6c5.6,0,10.2,4.6,10.2,10.2v31.4
		c0,5.6,4.6,10.2,10.2,10.2h3.7c5.6,0,10.2-4.6,10.2-10.2v-22.3c0-5.6,4.6-10.2,10.2-10.2h2.1"/>
</g>
<g id="Livello_4">
	<path fill="none" stroke="#122945" stroke-width="1.5" stroke-miterlimit="10" d="M365.2,150.2c-13.3,0.4-25,1.2-29.3,4
		c-6.2,4.1-9.9,0.1-9.3,0.1V92.9c-0.6,0,3.1-4,9.3,0.1c11.2,7.4,73.4,1.4,81.5,8v45.3c-3.4,2.7-16.1,3.3-30.6,3.6"/>
	<path opacity="0.2" fill="#56BAA2" d="M417.4,124.8c-8.1,2.5-70.3,0.2-81.5,3c-6.2,1.6-9.9,0-9.3,0v-23.3c-0.6,0,3.1-1.5,9.3,0
		c11.2,2.8,73.4,1.7,81.5,4.2V124.8z"/>
	<g display="none">
		
			<line display="inline" fill="none" stroke="#EBD100" stroke-width="1.5" stroke-linejoin="bevel" x1="-409.8" y1="71.1" x2="-409.8" y2="72.6"/>
		
			<line display="inline" fill="none" stroke="#EBD100" stroke-width="1.5" stroke-linejoin="bevel" stroke-dasharray="3.3854,3.3854" x1="-409.8" y1="76" x2="-409.8" y2="94.6"/>
		
			<line display="inline" fill="none" stroke="#EBD100" stroke-width="1.5" stroke-linejoin="bevel" x1="-409.8" y1="96.3" x2="-409.8" y2="97.8"/>
	</g>
	<g display="none">
		
			<line display="inline" fill="none" stroke="#EBD100" stroke-width="1.5" stroke-linejoin="bevel" x1="-432.8" y1="98.8" x2="-431.3" y2="98.8"/>
		
			<line display="inline" fill="none" stroke="#EBD100" stroke-width="1.5" stroke-linejoin="bevel" stroke-dasharray="2.9034,2.9034" x1="-428.4" y1="98.8" x2="-389.2" y2="98.8"/>
		
			<line display="inline" fill="none" stroke="#EBD100" stroke-width="1.5" stroke-linejoin="bevel" x1="-387.8" y1="98.8" x2="-386.3" y2="98.8"/>
	</g>
	<g display="none">
		
			<line display="inline" fill="none" stroke="#EBD100" stroke-width="1.5" stroke-linejoin="bevel" x1="-368" y1="98.8" x2="-366.5" y2="98.8"/>
		
			<line display="inline" fill="none" stroke="#EBD100" stroke-width="1.5" stroke-linejoin="bevel" stroke-dasharray="3,3" x1="-363.5" y1="98.8" x2="-329" y2="98.8"/>
		
			<line display="inline" fill="none" stroke="#EBD100" stroke-width="1.5" stroke-linejoin="bevel" x1="-327.5" y1="98.8" x2="-326" y2="98.8"/>
	</g>
	<polyline fill="none" stroke="#122945" stroke-width="1.5" stroke-miterlimit="10" points="441.3,148.3 438.5,159.8 459.5,159.8 
		456.7,145 	"/>
	<g>
		<g>
			<path opacity="0.4" fill="none" stroke="#122945" stroke-miterlimit="10" d="M440.1,137.7l-3.7-1.2c-1.1-0.3-2.2,0.1-2.7,1.2
				l-8.2,17.1c-0.6,1.2,0,2.6,1.3,3l1.1,0.4c1,0.3,2.2-0.1,2.7-1.1l6.5-12.9c0.5-1,1.6-1.4,2.7-1.1l8.9,2.9c1,0.3,2-0.1,2.5-0.9
				l8.1-12.8c0.7-1,0.3-2.4-0.7-3.1l-8.3-5.1c-1.2-0.7-2.7-0.2-3.2,1.1l-3.8,9.4c-0.3,0.8-1.2,1.2-2,0.9l-7.2-2.3
				c-1.1-0.3-2.2,0.1-2.7,1.2l-8.2,17.1c-0.6,1.2,0,2.6,1.3,3l0.7,0.2"/>
			<path opacity="0.4" fill="none" stroke="#122945" stroke-miterlimit="10" d="M434.1,133.1c-0.6-0.2-1-0.9-0.9-1.5l0.1-0.7
				c0.1-0.8,1-1.3,1.7-1l6.5,2.1c0.7,0.2,1.5-0.1,1.9-0.7l3.7-6.1"/>
			<path fill="none" stroke="#086F5F" stroke-width="1.5" stroke-linejoin="bevel" stroke-miterlimit="10" d="M437.3,144.8l2.5,3
				l10,3.3c1.3,0.4,2.8-0.1,3.6-1.2l7.7-11.4c1.2-1.7,0.4-4.1-1.6-4.7l-0.5-0.2"/>
			<path opacity="0.4" fill="none" stroke="#122945" stroke-miterlimit="10" d="M464.3,119.7c-0.1-2.5-1.7-4.9-4.3-5.7
				c-1.4-0.5-2.9-0.4-4.2,0.1"/>
			<path opacity="0.4" fill="none" stroke="#122945" stroke-miterlimit="10" d="M452.2,118c-1.1,3.3,0.7,6.8,4,7.8
				c1.6,0.5,3.2,0.4,4.6-0.3"/>
			<path opacity="0.4" fill="none" stroke="#122945" stroke-miterlimit="10" d="M453,142.1c-0.6,1-1.8,1.4-2.9,1l-9.2-3
				c-0.7-0.2-1.1-0.9-1-1.7l0.1-0.8c0.2-0.9,1.1-1.4,1.9-1.1l7,2.3c0.8,0.2,1.6-0.1,2-0.7l3.6-6.1"/>
		</g>
		<g>
			<path fill="none" stroke="#122945" stroke-width="1.5" stroke-miterlimit="10" d="M449.5,116.5l3.6,1.9c0.1,0,0.1,0.1,0.2,0.1
				l3.3,2.3c0.7,0.5,1.8,0.3,2.3-0.5l1.1-1.8c0.5-0.7,0.2-1.7-0.5-2.2l-7.2-4.4c-0.7-0.5-1.7-0.2-2.2,0.5l-1.1,1.8
				C448.4,115.1,448.7,116.1,449.5,116.5z"/>
			
				<ellipse transform="matrix(0.5 -0.866 0.866 0.5 125.0716 462.8175)" fill="none" stroke="#086F5F" stroke-width="1.5" stroke-linejoin="bevel" stroke-miterlimit="10" cx="463.3" cy="123.1" rx="3.2" ry="2.9"/>
		</g>
	</g>
	<path fill="none" stroke="#086F5F" stroke-width="1.5" stroke-linejoin="bevel" stroke-miterlimit="10" d="M575.2,160.3h2.7
		c1.2,2.9,4.1,4.9,7.4,4.9c3.4,0,6.4-2.1,7.5-5.2h-7.5l-1.9-2.9l1.9-2.9h7.5c-1.2-3-4.1-5.2-7.5-5.2c-3.3,0-6.2,2-7.4,4.9h-2.7"/>
	<path fill="none" stroke="#086F5F" stroke-width="1.5" stroke-linejoin="bevel" stroke-miterlimit="10" d="M555.8,153.9h-3.3
		c-1.2-2.9-4.1-4.9-7.4-4.9c-3.4,0-6.4,2.1-7.5,5.2h7.5l1.9,2.9l-1.9,2.9h-7.5c1.2,3,4.1,5.2,7.5,5.2c3.3,0,6.2-2,7.4-4.9h3.2"/>
	<g>
		<path opacity="0.4" fill="none" stroke="#122945" stroke-miterlimit="10" d="M248.1,126.1c-1.3-1.9-2-4.2-2-6.7
			c0-6.6,5.4-12,12-12c6.6,0,12,5.4,12,12c0,2.5-0.7,4.8-2,6.7"/>
		<rect x="236.9" y="125.8" fill="none" stroke="#122945" stroke-width="1.5" stroke-miterlimit="10" width="44.3" height="34"/>
		<path opacity="0.4" fill="none" stroke="#122945" stroke-miterlimit="10" d="M281.2,134.4l9,5.8c5.2,3.3,4,11.2-1.9,12.9l-7.2,2.1
			"/>
		<line opacity="0.4" fill="none" stroke="#122945" stroke-miterlimit="10" x1="236.9" y1="134.4" x2="223.5" y2="144.8"/>
		<path opacity="0.4" fill="none" stroke="#122945" stroke-miterlimit="10" d="M230,154.1h-14v-3.5c0-3.2,2.6-5.8,5.8-5.8h2.3
			c3.2,0,5.8,2.6,5.8,5.8V154.1z"/>
		<path fill="none" stroke="#086F5F" stroke-width="1.5" stroke-linejoin="bevel" stroke-miterlimit="10" d="M232.6,159.2h-19v-0.6
			c0-2.5,2-4.5,4.5-4.5h10c2.5,0,4.5,2,4.5,4.5V159.2z"/>
		
			<circle fill="none" stroke="#086F5F" stroke-width="1.5" stroke-linejoin="bevel" stroke-miterlimit="10" cx="259" cy="142.8" r="3.6"/>
		<line opacity="0.4" fill="none" stroke="#122945" stroke-miterlimit="10" x1="229.9" y1="150.5" x2="236.9" y2="150.5"/>
	</g>
	<g>
		<path opacity="0.6" fill="none" stroke="#122945" stroke-linejoin="bevel" stroke-miterlimit="10" d="M544.9,156.6"/>
		<path opacity="0.4" fill="none" stroke="#122945" stroke-miterlimit="10" d="M552.4,143.8c-2.3-1.3-4.9-2-7.5-2
			c-8.2,0-14.9,6.7-14.9,14.9c0,8.2,6.7,14.9,14.9,14.9c5,0,9.4-2.5,12.1-6.3"/>
		<polyline opacity="0.4" fill="none" stroke="#122945" stroke-miterlimit="10" points="547.7,146.1 552.4,143.8 551.5,139 		"/>
	</g>
	<line fill="none" stroke="#122945" stroke-miterlimit="10" x1="459.6" y1="119.1" x2="461.7" y2="120.4"/>
	<line fill="none" stroke="#122945" stroke-miterlimit="10" x1="458.7" y1="120.5" x2="460.8" y2="121.6"/>
	<rect x="365.2" y="130.6" fill="none" stroke="#122945" stroke-miterlimit="10" stroke-opacity="0.4" width="22" height="29.3"/>
	<g>
		<polyline opacity="0.4" fill="none" stroke="#122945" stroke-miterlimit="10" points="345.8,137.5 355.4,137.5 355.4,160.3 		"/>
		<line opacity="0.4" fill="none" stroke="#122945" stroke-miterlimit="10" x1="345.8" y1="137.5" x2="345.8" y2="160.3"/>
		<path fill="none" stroke="#122945" stroke-miterlimit="10" d="M345.8,140.5"/>
		<path fill="none" stroke="#122945" stroke-miterlimit="10" d="M355.4,140.5"/>
		<line opacity="0.4" fill="none" stroke="#122945" stroke-miterlimit="10" x1="345.8" y1="140.5" x2="355.4" y2="140.5"/>
		<line opacity="0.4" fill="none" stroke="#122945" stroke-miterlimit="10" x1="345.8" y1="155.3" x2="355.4" y2="155.3"/>
	</g>
	<g>
		<polyline opacity="0.4" fill="none" stroke="#122945" stroke-miterlimit="10" points="391.9,137.5 401.5,137.5 401.5,160.3 		"/>
		<line opacity="0.4" fill="none" stroke="#122945" stroke-miterlimit="10" x1="391.9" y1="137.5" x2="391.9" y2="160.3"/>
		<path fill="none" stroke="#122945" stroke-miterlimit="10" d="M391.9,140.5"/>
		<path fill="none" stroke="#122945" stroke-miterlimit="10" d="M401.5,140.5"/>
		<line opacity="0.4" fill="none" stroke="#122945" stroke-miterlimit="10" x1="391.9" y1="140.5" x2="401.5" y2="140.5"/>
		<line opacity="0.4" fill="none" stroke="#122945" stroke-miterlimit="10" x1="391.9" y1="155.3" x2="401.5" y2="155.3"/>
	</g>
	<g>
		<path fill="none" stroke="#122945" stroke-width="1.5" stroke-miterlimit="10" d="M579.2,116.3v-4c0-7.7-6.2-13.9-13.9-13.9
			s-13.9,6.2-13.9,13.9v3.7"/>
		<ellipse fill="none" stroke="#122945" stroke-width="1.5" stroke-miterlimit="10" cx="565.4" cy="117.7" rx="16.3" ry="2.9"/>
		<path fill="none" stroke="#122945" stroke-width="1.5" stroke-miterlimit="10" d="M556.1,101.9c0.4,1.5,2.9,8.7-4.7,10.5"/>
		<path fill="none" stroke="#122945" stroke-width="1.5" stroke-miterlimit="10" d="M574.6,102.1c-0.4,1.5-2.9,8.7,4.7,10.5"/>
		<path fill="none" stroke="#122945" stroke-width="1.5" stroke-miterlimit="10" d="M566.2,109.2h-2c-0.8,0-1.5-0.6-1.6-1.4l-1-9.9
			c-0.1-1,0.6-1.8,1.6-1.8h4.1c1,0,1.7,0.8,1.6,1.8l-1,9.9C567.8,108.6,567.1,109.2,566.2,109.2z"/>
	</g>
	<path fill="none" stroke="#122945" stroke-miterlimit="10" stroke-opacity="0.4" d="M556.8,174.7l-4.1-9c-0.2-0.5-0.3-1.1-0.2-1.6
		l0.2-1.8c0.1-1.1,1.1-1.9,2.2-1.9h0.9l0.1-11.5h3c0.5,0,0.9,0.3,1.2,0.7l1.2,2V149h2.7c0.6,0,1.1,0.3,1.3,0.9l1.4,3.3v-3.3h2.3
		c0.6,0,1.1,0.3,1.3,0.8l1.7,3.9v-2.4h1.7c0.8,0,1.4,0.6,1.4,1.4v20.7"/>
	<g>
		
			<ellipse transform="matrix(0.5727 -0.8198 0.8198 0.5727 -76.0783 77.9649)" fill="none" stroke="#086F5F" stroke-width="1.5" stroke-linejoin="bevel" stroke-miterlimit="10" cx="36.7" cy="112" rx="2.7" ry="2.3"/>
		<path fill="none" stroke="#122945" stroke-width="1.5" stroke-miterlimit="10" d="M27.1,108.1"/>
		<path fill="none" stroke="#086F5F" stroke-width="1.5" stroke-linejoin="bevel" stroke-miterlimit="10" d="M35.5,110
			c0,0-5.4-4.6-6.4-5.4c-2.1-1.6-4.3,1-3.2,2.6"/>
	</g>
</g>
<g id="txt">
	<g>
		<path fill="#122945" d="M61,60c-0.7,0-1.4-0.1-2-0.4c-0.6-0.3-1.1-0.6-1.6-1.1c-0.4-0.5-0.8-1.1-1.1-1.8S56,55.2,56,54.3
			c0-0.9,0.1-1.7,0.4-2.5c0.3-0.7,0.7-1.3,1.1-1.8c0.5-0.5,1-0.9,1.6-1.1c0.6-0.2,1.3-0.4,1.9-0.4c0.4,0,0.8,0,1.1,0.1
			c0.3,0.1,0.6,0.1,0.9,0.2c0.3,0.1,0.5,0.2,0.7,0.2c0.2,0.1,0.3,0.2,0.4,0.2l-0.3,0.9c-0.3-0.2-0.6-0.3-1-0.5
			c-0.4-0.2-0.9-0.2-1.5-0.2c-0.7,0-1.3,0.1-1.8,0.3s-0.9,0.6-1.3,1c-0.3,0.4-0.6,0.9-0.8,1.5c-0.2,0.6-0.3,1.2-0.3,1.9
			c0,0.7,0.1,1.4,0.3,2c0.2,0.6,0.4,1.1,0.8,1.5s0.8,0.7,1.2,1s1.1,0.3,1.7,0.3c0.7,0,1.3-0.1,1.8-0.2c0.5-0.1,0.8-0.3,1.1-0.4
			l0.3,0.9c-0.1,0.1-0.2,0.1-0.4,0.2c-0.2,0.1-0.4,0.1-0.7,0.2c-0.3,0.1-0.6,0.1-1,0.2C61.8,60,61.4,60,61,60z"/>
		<path fill="#122945" d="M73,55.7c0,0.6-0.1,1.2-0.3,1.8c-0.2,0.5-0.4,1-0.8,1.3c-0.3,0.4-0.7,0.7-1.2,0.9c-0.5,0.2-1,0.3-1.5,0.3
			c-0.6,0-1.1-0.1-1.5-0.3c-0.5-0.2-0.8-0.5-1.2-0.9c-0.3-0.4-0.6-0.8-0.8-1.3c-0.2-0.5-0.3-1.1-0.3-1.8s0.1-1.2,0.3-1.8
			c0.2-0.5,0.4-1,0.8-1.4c0.3-0.4,0.7-0.7,1.2-0.9s1-0.3,1.5-0.3c0.5,0,1.1,0.1,1.5,0.3s0.8,0.5,1.2,0.9c0.3,0.4,0.6,0.8,0.8,1.4
			C72.9,54.5,73,55.1,73,55.7z M71.9,55.7c0-1-0.2-1.8-0.7-2.5c-0.5-0.6-1.1-0.9-1.9-0.9c-0.8,0-1.5,0.3-1.9,0.9
			c-0.5,0.6-0.7,1.4-0.7,2.5c0,1,0.2,1.8,0.7,2.4c0.5,0.6,1.1,0.9,1.9,0.9c0.8,0,1.5-0.3,1.9-0.9C71.7,57.6,71.9,56.7,71.9,55.7z"/>
		<path fill="#122945" d="M75.3,51.9c0.3-0.1,0.7-0.2,1.2-0.3c0.5-0.1,1.2-0.2,1.9-0.2c0.6,0,1.1,0.1,1.6,0.3c0.4,0.2,0.8,0.4,1,0.8
			c0.2,0.3,0.4,0.7,0.5,1.2c0.1,0.5,0.2,1,0.2,1.5v4.6h-1v-4.3c0-0.6,0-1.1-0.1-1.5c-0.1-0.4-0.2-0.7-0.4-1
			c-0.2-0.3-0.4-0.4-0.7-0.5c-0.3-0.1-0.7-0.2-1.1-0.2c-0.5,0-0.9,0-1.3,0.1c-0.4,0.1-0.6,0.1-0.7,0.1v7.2h-1V51.9z"/>
		<path fill="#122945" d="M85.3,51.6h3.3v0.9h-3.3v4.4c0,0.5,0,0.8,0.1,1.1c0.1,0.3,0.2,0.5,0.3,0.7s0.3,0.3,0.5,0.3
			C86.5,59,86.7,59,87,59c0.4,0,0.8,0,1-0.2s0.5-0.2,0.6-0.3l0.3,0.9c-0.1,0.1-0.4,0.2-0.8,0.3c-0.4,0.1-0.8,0.2-1.2,0.2
			c-0.5,0-0.9-0.1-1.3-0.2s-0.6-0.3-0.8-0.6c-0.2-0.3-0.4-0.6-0.4-1c-0.1-0.4-0.1-0.9-0.1-1.4v-7.6l1-0.2V51.6z"/>
		<path fill="#122945" d="M89.9,55.7c0-0.7,0.1-1.3,0.3-1.9c0.2-0.5,0.5-1,0.8-1.3c0.3-0.4,0.7-0.6,1.1-0.8c0.4-0.2,0.9-0.3,1.3-0.3
			c1,0,1.8,0.3,2.4,1c0.6,0.7,0.9,1.7,0.9,3c0,0.1,0,0.2,0,0.3c0,0.1,0,0.2,0,0.2H91c0,1,0.3,1.8,0.7,2.3C92.2,58.8,93,59,94,59
			c0.6,0,1-0.1,1.3-0.2c0.3-0.1,0.6-0.2,0.7-0.3l0.2,0.9c-0.1,0.1-0.4,0.2-0.8,0.3S94.5,60,94,60c-0.7,0-1.3-0.1-1.8-0.3
			c-0.5-0.2-0.9-0.5-1.3-0.9c-0.3-0.4-0.6-0.8-0.7-1.4C90,56.9,89.9,56.3,89.9,55.7z M95.8,55c0-0.9-0.2-1.5-0.6-2s-0.9-0.7-1.6-0.7
			c-0.4,0-0.7,0.1-1,0.2c-0.3,0.1-0.5,0.3-0.8,0.6c-0.2,0.2-0.4,0.5-0.5,0.9c-0.1,0.3-0.2,0.7-0.2,1H95.8z"/>
		<path fill="#122945" d="M99.1,51.9c0.3-0.1,0.7-0.2,1.2-0.3c0.5-0.1,1.2-0.2,1.9-0.2c0.6,0,1.1,0.1,1.6,0.3c0.4,0.2,0.8,0.4,1,0.8
			c0.2,0.3,0.4,0.7,0.5,1.2c0.1,0.5,0.2,1,0.2,1.5v4.6h-1v-4.3c0-0.6,0-1.1-0.1-1.5c-0.1-0.4-0.2-0.7-0.4-1
			c-0.2-0.3-0.4-0.4-0.7-0.5c-0.3-0.1-0.7-0.2-1.1-0.2c-0.5,0-0.9,0-1.3,0.1c-0.4,0.1-0.6,0.1-0.7,0.1v7.2h-1V51.9z"/>
		<path fill="#122945" d="M109.1,51.6h3.3v0.9h-3.3v4.4c0,0.5,0,0.8,0.1,1.1c0.1,0.3,0.2,0.5,0.3,0.7s0.3,0.3,0.5,0.3
			c0.2,0.1,0.4,0.1,0.7,0.1c0.4,0,0.8,0,1-0.2s0.5-0.2,0.6-0.3l0.3,0.9c-0.1,0.1-0.4,0.2-0.8,0.3c-0.4,0.1-0.8,0.2-1.2,0.2
			c-0.5,0-0.9-0.1-1.3-0.2s-0.6-0.3-0.8-0.6c-0.2-0.3-0.4-0.6-0.4-1c-0.1-0.4-0.1-0.9-0.1-1.4v-7.6l1-0.2V51.6z"/>
		<path fill="#122945" d="M58.9,73.4c0,0.9-0.1,1.8-0.4,2.5c-0.3,0.7-0.7,1.3-1.2,1.7c-0.5,0.5-1.2,0.8-1.9,1
			c-0.7,0.2-1.6,0.3-2.4,0.3c-0.4,0-0.9,0-1.4-0.1c-0.5,0-0.9-0.1-1.3-0.2V68.1c0.4-0.1,0.8-0.2,1.3-0.2c0.5,0,1-0.1,1.4-0.1
			c0.9,0,1.7,0.1,2.4,0.3c0.7,0.2,1.4,0.6,1.9,1c0.5,0.5,0.9,1,1.2,1.7C58.7,71.6,58.9,72.4,58.9,73.4z M51.2,77.9
			c0.1,0,0.2,0,0.5,0.1c0.3,0,0.7,0,1.2,0c0.8,0,1.5-0.1,2.1-0.3c0.6-0.2,1.1-0.5,1.5-0.9c0.4-0.4,0.7-0.9,0.9-1.5
			c0.2-0.6,0.3-1.2,0.3-1.9c0-0.7-0.1-1.4-0.3-1.9c-0.2-0.6-0.5-1.1-0.9-1.5S55.6,69.2,55,69s-1.3-0.3-2.1-0.3c-0.6,0-1,0-1.2,0
			c-0.3,0-0.4,0.1-0.5,0.1V77.9z"/>
		<path fill="#122945" d="M60.7,74.7c0-0.7,0.1-1.3,0.3-1.9c0.2-0.5,0.5-1,0.8-1.3c0.3-0.4,0.7-0.6,1.1-0.8c0.4-0.2,0.9-0.3,1.3-0.3
			c1,0,1.8,0.3,2.4,1c0.6,0.7,0.9,1.7,0.9,3c0,0.1,0,0.2,0,0.3c0,0.1,0,0.2,0,0.2h-5.8c0,1,0.3,1.8,0.7,2.3c0.5,0.5,1.2,0.8,2.2,0.8
			c0.6,0,1-0.1,1.3-0.2c0.3-0.1,0.6-0.2,0.7-0.3l0.2,0.9c-0.1,0.1-0.4,0.2-0.8,0.3S65.3,79,64.7,79c-0.7,0-1.3-0.1-1.8-0.3
			c-0.5-0.2-0.9-0.5-1.3-0.9c-0.3-0.4-0.6-0.8-0.7-1.4C60.8,75.9,60.7,75.4,60.7,74.7z M66.5,74.1c0-0.9-0.2-1.5-0.6-2
			c-0.4-0.5-0.9-0.7-1.6-0.7c-0.4,0-0.7,0.1-1,0.2c-0.3,0.1-0.5,0.3-0.8,0.6c-0.2,0.2-0.4,0.5-0.5,0.9c-0.1,0.3-0.2,0.7-0.2,1H66.5z
			"/>
		<path fill="#122945" d="M72.9,66.5c0.4,0,0.8,0,1.1,0.1s0.5,0.1,0.5,0.2l-0.2,0.9c-0.1-0.1-0.3-0.1-0.5-0.2
			c-0.2-0.1-0.5-0.1-0.9-0.1c-0.7,0-1.3,0.2-1.6,0.6c-0.3,0.4-0.5,1-0.5,1.8v0.9h3.3v0.9h-3.3v7.3h-1v-9.1c0-1.1,0.2-1.9,0.7-2.4
			C71.1,66.8,71.9,66.5,72.9,66.5z M77.1,68.2c0,0.2-0.1,0.4-0.2,0.6S76.6,69,76.4,69c-0.2,0-0.4-0.1-0.5-0.2
			c-0.1-0.1-0.2-0.3-0.2-0.6c0-0.2,0.1-0.4,0.2-0.6c0.1-0.1,0.3-0.2,0.5-0.2c0.2,0,0.4,0.1,0.5,0.2C77.1,67.7,77.1,67.9,77.1,68.2z
			 M76.9,78.9h-1v-8.2h1V78.9z"/>
		<path fill="#122945" d="M79.6,70.9c0.3-0.1,0.7-0.2,1.2-0.3c0.5-0.1,1.2-0.2,1.9-0.2c0.6,0,1.1,0.1,1.6,0.3c0.4,0.2,0.8,0.4,1,0.8
			c0.2,0.3,0.4,0.7,0.5,1.2c0.1,0.5,0.2,1,0.2,1.5v4.6h-1v-4.3c0-0.6,0-1.1-0.1-1.5c-0.1-0.4-0.2-0.7-0.4-1
			c-0.2-0.3-0.4-0.4-0.7-0.5c-0.3-0.1-0.7-0.2-1.1-0.2c-0.5,0-0.9,0-1.3,0.1c-0.4,0.1-0.6,0.1-0.7,0.1v7.2h-1V70.9z"/>
		<path fill="#122945" d="M89.9,68.2c0,0.2-0.1,0.4-0.2,0.6S89.4,69,89.2,69s-0.4-0.1-0.5-0.2c-0.1-0.1-0.2-0.3-0.2-0.6
			c0-0.2,0.1-0.4,0.2-0.6c0.1-0.1,0.3-0.2,0.5-0.2s0.4,0.1,0.5,0.2C89.9,67.7,89.9,67.9,89.9,68.2z M89.7,78.9h-1v-8.2h1V78.9z"/>
		<path fill="#122945" d="M93.4,70.7h3.3v0.9h-3.3v4.4c0,0.5,0,0.8,0.1,1.1c0.1,0.3,0.2,0.5,0.3,0.7s0.3,0.3,0.5,0.3
			c0.2,0.1,0.4,0.1,0.7,0.1c0.4,0,0.8,0,1-0.2s0.5-0.2,0.6-0.3l0.3,0.9c-0.1,0.1-0.4,0.2-0.8,0.3C95.9,79,95.5,79,95,79
			c-0.5,0-0.9-0.1-1.3-0.2s-0.6-0.3-0.8-0.6c-0.2-0.3-0.4-0.6-0.4-1c-0.1-0.4-0.1-0.9-0.1-1.4v-7.6l1-0.2V70.7z"/>
		<path fill="#122945" d="M99.8,68.2c0,0.2-0.1,0.4-0.2,0.6S99.3,69,99.1,69s-0.4-0.1-0.5-0.2c-0.1-0.1-0.2-0.3-0.2-0.6
			c0-0.2,0.1-0.4,0.2-0.6c0.1-0.1,0.3-0.2,0.5-0.2s0.4,0.1,0.5,0.2C99.8,67.7,99.8,67.9,99.8,68.2z M99.6,78.9h-1v-8.2h1V78.9z"/>
		<path fill="#122945" d="M109.3,74.8c0,0.6-0.1,1.2-0.3,1.8c-0.2,0.5-0.4,1-0.8,1.3c-0.3,0.4-0.7,0.7-1.2,0.9
			c-0.5,0.2-1,0.3-1.5,0.3c-0.6,0-1.1-0.1-1.5-0.3c-0.5-0.2-0.8-0.5-1.2-0.9c-0.3-0.4-0.6-0.8-0.8-1.3c-0.2-0.5-0.3-1.1-0.3-1.8
			s0.1-1.2,0.3-1.8c0.2-0.5,0.4-1,0.8-1.4c0.3-0.4,0.7-0.7,1.2-0.9s1-0.3,1.5-0.3c0.5,0,1.1,0.1,1.5,0.3s0.8,0.5,1.2,0.9
			c0.3,0.4,0.6,0.8,0.8,1.4C109.2,73.5,109.3,74.1,109.3,74.8z M108.2,74.8c0-1-0.2-1.8-0.7-2.5c-0.5-0.6-1.1-0.9-1.9-0.9
			c-0.8,0-1.5,0.3-1.9,0.9c-0.5,0.6-0.7,1.4-0.7,2.5c0,1,0.2,1.8,0.7,2.4c0.5,0.6,1.1,0.9,1.9,0.9c0.8,0,1.5-0.3,1.9-0.9
			C108,76.6,108.2,75.8,108.2,74.8z"/>
		<path fill="#122945" d="M111.6,70.9c0.3-0.1,0.7-0.2,1.2-0.3c0.5-0.1,1.2-0.2,1.9-0.2c0.6,0,1.1,0.1,1.6,0.3
			c0.4,0.2,0.8,0.4,1,0.8c0.2,0.3,0.4,0.7,0.5,1.2c0.1,0.5,0.2,1,0.2,1.5v4.6h-1v-4.3c0-0.6,0-1.1-0.1-1.5c-0.1-0.4-0.2-0.7-0.4-1
			c-0.2-0.3-0.4-0.4-0.7-0.5c-0.3-0.1-0.7-0.2-1.1-0.2c-0.5,0-0.9,0-1.3,0.1c-0.4,0.1-0.6,0.1-0.7,0.1v7.2h-1V70.9z"/>
	</g>
	<g>
		<path fill="#122945" d="M292.5,202.4c-0.7,0-1.4-0.1-2-0.4c-0.6-0.3-1.1-0.6-1.6-1.1c-0.4-0.5-0.8-1.1-1.1-1.8s-0.4-1.5-0.4-2.5
			c0-0.9,0.1-1.7,0.4-2.5c0.3-0.7,0.7-1.3,1.1-1.8c0.5-0.5,1-0.9,1.6-1.1c0.6-0.2,1.3-0.4,1.9-0.4c0.4,0,0.8,0,1.1,0.1
			c0.3,0.1,0.6,0.1,0.9,0.2c0.3,0.1,0.5,0.2,0.7,0.2c0.2,0.1,0.3,0.2,0.4,0.2l-0.3,0.9c-0.3-0.2-0.6-0.3-1-0.5
			c-0.4-0.2-0.9-0.2-1.5-0.2c-0.7,0-1.3,0.1-1.8,0.3s-0.9,0.6-1.3,1c-0.3,0.4-0.6,0.9-0.8,1.5c-0.2,0.6-0.3,1.2-0.3,1.9
			c0,0.7,0.1,1.4,0.3,2c0.2,0.6,0.4,1.1,0.8,1.5s0.8,0.7,1.2,1s1.1,0.3,1.7,0.3c0.7,0,1.3-0.1,1.8-0.2c0.5-0.1,0.8-0.3,1.1-0.4
			l0.3,0.9c-0.1,0.1-0.2,0.1-0.4,0.2c-0.2,0.1-0.4,0.1-0.7,0.2c-0.3,0.1-0.6,0.1-1,0.2C293.4,202.4,293,202.4,292.5,202.4z"/>
		<path fill="#122945" d="M304.5,198.1c0,0.6-0.1,1.2-0.3,1.8c-0.2,0.5-0.4,1-0.8,1.3c-0.3,0.4-0.7,0.7-1.2,0.9
			c-0.5,0.2-1,0.3-1.5,0.3c-0.6,0-1.1-0.1-1.5-0.3c-0.5-0.2-0.8-0.5-1.2-0.9c-0.3-0.4-0.6-0.8-0.8-1.3c-0.2-0.5-0.3-1.1-0.3-1.8
			s0.1-1.2,0.3-1.8c0.2-0.5,0.4-1,0.8-1.4c0.3-0.4,0.7-0.7,1.2-0.9s1-0.3,1.5-0.3c0.5,0,1.1,0.1,1.5,0.3s0.8,0.5,1.2,0.9
			c0.3,0.4,0.6,0.8,0.8,1.4C304.4,196.9,304.5,197.5,304.5,198.1z M303.4,198.1c0-1-0.2-1.8-0.7-2.5c-0.5-0.6-1.1-0.9-1.9-0.9
			c-0.8,0-1.5,0.3-1.9,0.9c-0.5,0.6-0.7,1.4-0.7,2.5c0,1,0.2,1.8,0.7,2.4c0.5,0.6,1.1,0.9,1.9,0.9c0.8,0,1.5-0.3,1.9-0.9
			C303.2,199.9,303.4,199.1,303.4,198.1z"/>
		<path fill="#122945" d="M306.8,194.3c0.3-0.1,0.7-0.2,1.2-0.3c0.5-0.1,1.1-0.2,1.9-0.2c1,0,1.8,0.3,2.3,0.9c0.1,0,0.2-0.1,0.3-0.2
			c0.2-0.1,0.3-0.2,0.6-0.3c0.2-0.1,0.5-0.2,0.8-0.3s0.7-0.1,1-0.1c0.6,0,1.1,0.1,1.5,0.3c0.4,0.2,0.7,0.4,0.9,0.8
			c0.2,0.3,0.4,0.7,0.4,1.2c0.1,0.5,0.1,1,0.1,1.5v4.6h-1v-4.3c0-0.5,0-1-0.1-1.4c0-0.4-0.1-0.7-0.3-1s-0.3-0.5-0.6-0.6
			s-0.6-0.2-1-0.2c-0.3,0-0.6,0-0.9,0.1c-0.3,0.1-0.5,0.1-0.7,0.2c-0.2,0.1-0.3,0.2-0.5,0.3c-0.1,0.1-0.2,0.1-0.3,0.2
			c0.1,0.3,0.2,0.6,0.2,0.9c0,0.3,0.1,0.7,0.1,1.1v4.7h-1v-4.3c0-0.5,0-1-0.1-1.4c0-0.4-0.1-0.7-0.3-1s-0.4-0.5-0.6-0.6
			s-0.6-0.2-1.1-0.2c-0.5,0-0.9,0-1.3,0.1c-0.3,0.1-0.6,0.1-0.7,0.1v7.2h-1V194.3z"/>
		<path fill="#122945" d="M320.5,194.3c0.3-0.1,0.7-0.2,1.2-0.3c0.5-0.1,1.1-0.2,1.9-0.2c1,0,1.8,0.3,2.3,0.9c0.1,0,0.2-0.1,0.3-0.2
			c0.2-0.1,0.3-0.2,0.6-0.3c0.2-0.1,0.5-0.2,0.8-0.3s0.7-0.1,1-0.1c0.6,0,1.1,0.1,1.5,0.3c0.4,0.2,0.7,0.4,0.9,0.8
			c0.2,0.3,0.4,0.7,0.4,1.2c0.1,0.5,0.1,1,0.1,1.5v4.6h-1v-4.3c0-0.5,0-1-0.1-1.4c0-0.4-0.1-0.7-0.3-1s-0.3-0.5-0.6-0.6
			s-0.6-0.2-1-0.2c-0.3,0-0.6,0-0.9,0.1c-0.3,0.1-0.5,0.1-0.7,0.2c-0.2,0.1-0.3,0.2-0.5,0.3c-0.1,0.1-0.2,0.1-0.3,0.2
			c0.1,0.3,0.2,0.6,0.2,0.9c0,0.3,0.1,0.7,0.1,1.1v4.7h-1v-4.3c0-0.5,0-1-0.1-1.4c0-0.4-0.1-0.7-0.3-1s-0.4-0.5-0.6-0.6
			s-0.6-0.2-1.1-0.2c-0.5,0-0.9,0-1.3,0.1c-0.3,0.1-0.6,0.1-0.7,0.1v7.2h-1V194.3z"/>
		<path fill="#122945" d="M340.5,201.9c-0.3,0.1-0.7,0.2-1.2,0.3s-1.2,0.2-1.9,0.2c-0.6,0-1.1-0.1-1.5-0.3c-0.4-0.2-0.7-0.4-1-0.8
			s-0.4-0.7-0.5-1.2c-0.1-0.5-0.2-1-0.2-1.5V194h1v4.3c0,0.6,0,1.1,0.1,1.5s0.2,0.7,0.4,1c0.2,0.2,0.4,0.4,0.7,0.5
			c0.3,0.1,0.7,0.2,1.1,0.2c0.5,0,0.9,0,1.3-0.1c0.4-0.1,0.6-0.1,0.7-0.1V194h1V201.9z"/>
		<path fill="#122945" d="M343.2,194.3c0.3-0.1,0.7-0.2,1.2-0.3c0.5-0.1,1.2-0.2,1.9-0.2c0.6,0,1.1,0.1,1.6,0.3
			c0.4,0.2,0.8,0.4,1,0.8c0.2,0.3,0.4,0.7,0.5,1.2c0.1,0.5,0.2,1,0.2,1.5v4.6h-1v-4.3c0-0.6,0-1.1-0.1-1.5c-0.1-0.4-0.2-0.7-0.4-1
			c-0.2-0.3-0.4-0.4-0.7-0.5c-0.3-0.1-0.7-0.2-1.1-0.2c-0.5,0-0.9,0-1.3,0.1c-0.4,0.1-0.6,0.1-0.7,0.1v7.2h-1V194.3z"/>
		<path fill="#122945" d="M353.5,191.5c0,0.2-0.1,0.4-0.2,0.6s-0.3,0.2-0.5,0.2s-0.4-0.1-0.5-0.2c-0.1-0.1-0.2-0.3-0.2-0.6
			c0-0.2,0.1-0.4,0.2-0.6c0.1-0.1,0.3-0.2,0.5-0.2s0.4,0.1,0.5,0.2C353.4,191.1,353.5,191.3,353.5,191.5z M353.3,202.2h-1V194h1
			V202.2z"/>
		<path fill="#122945" d="M359.4,202.4c-0.6,0-1.2-0.1-1.7-0.3c-0.5-0.2-0.9-0.5-1.2-0.9c-0.3-0.4-0.6-0.8-0.7-1.3
			c-0.2-0.5-0.3-1.1-0.3-1.7c0-0.6,0.1-1.2,0.3-1.8s0.4-1,0.8-1.4c0.3-0.4,0.7-0.7,1.2-0.9c0.5-0.2,1-0.3,1.6-0.3
			c0.4,0,0.9,0,1.2,0.1s0.7,0.2,0.9,0.3l-0.3,0.9c-0.2-0.1-0.5-0.2-0.7-0.3c-0.3-0.1-0.6-0.1-1.1-0.1c-0.9,0-1.6,0.3-2.1,0.9
			s-0.7,1.4-0.7,2.5c0,0.5,0.1,0.9,0.2,1.3c0.1,0.4,0.3,0.8,0.5,1c0.2,0.3,0.5,0.5,0.9,0.7c0.4,0.2,0.8,0.2,1.4,0.2
			c0.4,0,0.8,0,1.1-0.2s0.5-0.2,0.7-0.3l0.2,0.9c-0.2,0.1-0.5,0.2-0.9,0.3S359.8,202.4,359.4,202.4z"/>
		<path fill="#122945" d="M365.8,193.8c0.5,0,1,0.1,1.4,0.2c0.4,0.2,0.7,0.4,0.9,0.6s0.4,0.6,0.5,1c0.1,0.4,0.2,0.8,0.2,1.2v5.2
			c-0.1,0-0.3,0.1-0.5,0.1s-0.4,0.1-0.7,0.1s-0.6,0.1-0.9,0.1c-0.3,0-0.7,0-1,0c-0.4,0-0.8,0-1.2-0.1c-0.4-0.1-0.7-0.2-1-0.5
			c-0.3-0.2-0.5-0.5-0.6-0.8s-0.2-0.7-0.2-1.2c0-0.4,0.1-0.8,0.3-1.1c0.2-0.3,0.4-0.6,0.7-0.8c0.3-0.2,0.7-0.4,1.1-0.5
			c0.4-0.1,0.9-0.1,1.4-0.1c0.1,0,0.3,0,0.5,0c0.2,0,0.3,0,0.5,0.1s0.3,0.1,0.4,0.1c0.1,0,0.2,0.1,0.2,0.1V197c0-0.3,0-0.6-0.1-0.8
			c0-0.3-0.1-0.5-0.3-0.7c-0.1-0.2-0.3-0.4-0.6-0.5c-0.3-0.1-0.6-0.2-1-0.2c-0.6,0-1.1,0-1.3,0.1c-0.3,0.1-0.5,0.2-0.7,0.2l-0.1-0.9
			c0.2-0.1,0.5-0.2,0.8-0.2C364.8,193.8,365.3,193.8,365.8,193.8z M365.9,201.5c0.4,0,0.8,0,1.1,0s0.6-0.1,0.8-0.1v-2.9
			c-0.1-0.1-0.3-0.1-0.6-0.2s-0.6-0.1-1-0.1c-0.3,0-0.5,0-0.8,0.1c-0.3,0-0.5,0.1-0.8,0.2c-0.2,0.1-0.4,0.3-0.6,0.5
			c-0.1,0.2-0.2,0.5-0.2,0.8c0,0.3,0.1,0.6,0.2,0.8s0.2,0.4,0.4,0.5c0.2,0.1,0.4,0.2,0.7,0.3C365.3,201.4,365.6,201.5,365.9,201.5z"
			/>
		<path fill="#122945" d="M372.4,194h3.3v0.9h-3.3v4.4c0,0.5,0,0.8,0.1,1.1c0.1,0.3,0.2,0.5,0.3,0.7s0.3,0.3,0.5,0.3
			c0.2,0.1,0.4,0.1,0.7,0.1c0.4,0,0.8,0,1-0.2s0.5-0.2,0.6-0.3l0.3,0.9c-0.1,0.1-0.4,0.2-0.8,0.3c-0.4,0.1-0.8,0.2-1.2,0.2
			c-0.5,0-0.9-0.1-1.3-0.2s-0.6-0.3-0.8-0.6c-0.2-0.3-0.4-0.6-0.4-1c-0.1-0.4-0.1-0.9-0.1-1.4v-7.6l1-0.2V194z"/>
		<path fill="#122945" d="M378.8,191.5c0,0.2-0.1,0.4-0.2,0.6s-0.3,0.2-0.5,0.2s-0.4-0.1-0.5-0.2c-0.1-0.1-0.2-0.3-0.2-0.6
			c0-0.2,0.1-0.4,0.2-0.6c0.1-0.1,0.3-0.2,0.5-0.2s0.4,0.1,0.5,0.2C378.7,191.1,378.8,191.3,378.8,191.5z M378.6,202.2h-1V194h1
			V202.2z"/>
		<path fill="#122945" d="M388.3,198.1c0,0.6-0.1,1.2-0.3,1.8c-0.2,0.5-0.4,1-0.8,1.3c-0.3,0.4-0.7,0.7-1.2,0.9
			c-0.5,0.2-1,0.3-1.5,0.3c-0.6,0-1.1-0.1-1.5-0.3c-0.5-0.2-0.8-0.5-1.2-0.9c-0.3-0.4-0.6-0.8-0.8-1.3c-0.2-0.5-0.3-1.1-0.3-1.8
			s0.1-1.2,0.3-1.8c0.2-0.5,0.4-1,0.8-1.4c0.3-0.4,0.7-0.7,1.2-0.9s1-0.3,1.5-0.3c0.5,0,1.1,0.1,1.5,0.3s0.8,0.5,1.2,0.9
			c0.3,0.4,0.6,0.8,0.8,1.4C388.2,196.9,388.3,197.5,388.3,198.1z M387.2,198.1c0-1-0.2-1.8-0.7-2.5c-0.5-0.6-1.1-0.9-1.9-0.9
			c-0.8,0-1.5,0.3-1.9,0.9c-0.5,0.6-0.7,1.4-0.7,2.5c0,1,0.2,1.8,0.7,2.4c0.5,0.6,1.1,0.9,1.9,0.9c0.8,0,1.5-0.3,1.9-0.9
			C387,199.9,387.2,199.1,387.2,198.1z"/>
		<path fill="#122945" d="M390.5,194.3c0.3-0.1,0.7-0.2,1.2-0.3c0.5-0.1,1.2-0.2,1.9-0.2c0.6,0,1.1,0.1,1.6,0.3
			c0.4,0.2,0.8,0.4,1,0.8c0.2,0.3,0.4,0.7,0.5,1.2c0.1,0.5,0.2,1,0.2,1.5v4.6h-1v-4.3c0-0.6,0-1.1-0.1-1.5c-0.1-0.4-0.2-0.7-0.4-1
			c-0.2-0.3-0.4-0.4-0.7-0.5c-0.3-0.1-0.7-0.2-1.1-0.2c-0.5,0-0.9,0-1.3,0.1c-0.4,0.1-0.6,0.1-0.7,0.1v7.2h-1V194.3z"/>
	</g>
	<g>
		<path fill="#122945" d="M548.1,42.3c0.3,0.9,0.6,1.8,0.9,2.7c0.3,0.8,0.6,1.7,0.9,2.4s0.6,1.6,0.9,2.3s0.6,1.5,1,2.3
			c0.3-0.8,0.6-1.5,0.9-2.3c0.3-0.8,0.6-1.5,0.9-2.3c0.3-0.8,0.6-1.6,0.9-2.5s0.6-1.7,0.9-2.7h1.1c-0.5,1.4-0.9,2.6-1.3,3.7
			c-0.4,1-0.8,2-1.1,2.8c-0.3,0.8-0.6,1.6-0.9,2.3c-0.3,0.7-0.6,1.4-0.9,2.2h-1c-0.3-0.7-0.6-1.5-0.9-2.2c-0.3-0.7-0.6-1.5-1-2.3
			c-0.3-0.8-0.7-1.8-1.1-2.8c-0.4-1-0.8-2.3-1.3-3.7H548.1z"/>
		<path fill="#122945" d="M565.4,45.6c0,0.8-0.2,1.5-0.7,2c-0.4,0.5-1,0.8-1.7,1c0.2,0.2,0.4,0.5,0.7,0.9c0.3,0.4,0.5,0.8,0.8,1.2
			c0.3,0.4,0.6,0.9,0.8,1.3c0.3,0.5,0.5,0.9,0.7,1.3h-1.2c-0.2-0.4-0.5-0.8-0.7-1.3c-0.3-0.4-0.5-0.8-0.8-1.2
			c-0.3-0.4-0.5-0.8-0.8-1.1s-0.5-0.6-0.7-0.9c-0.3,0-0.7,0-1,0h-1.8v4.4h-1.1V42.5c0.4-0.1,0.8-0.2,1.3-0.2c0.5,0,1-0.1,1.4-0.1
			c1.5,0,2.7,0.3,3.4,0.9C565,43.7,565.4,44.5,565.4,45.6z M561,43.2c-0.4,0-0.8,0-1.1,0c-0.3,0-0.6,0.1-0.8,0.1V48h1.5
			c0.5,0,1,0,1.4-0.1c0.4,0,0.8-0.2,1.2-0.3c0.3-0.2,0.6-0.4,0.8-0.7c0.2-0.3,0.3-0.7,0.3-1.3c0-0.5-0.1-0.9-0.3-1.2
			c-0.2-0.3-0.4-0.6-0.7-0.8c-0.3-0.2-0.7-0.3-1.1-0.4C561.8,43.2,561.4,43.2,561,43.2z"/>
		<path fill="#122945" d="M505.3,66.9c0,0.9-0.1,1.8-0.4,2.5c-0.3,0.7-0.6,1.3-1.1,1.8c-0.5,0.5-1,0.8-1.6,1.1s-1.3,0.4-2,0.4
			s-1.4-0.1-2-0.4s-1.2-0.6-1.6-1.1c-0.5-0.5-0.8-1.1-1.1-1.8c-0.3-0.7-0.4-1.6-0.4-2.5c0-0.9,0.1-1.8,0.4-2.5
			c0.3-0.7,0.6-1.3,1.1-1.8c0.5-0.5,1-0.8,1.6-1.1c0.6-0.2,1.3-0.4,2-0.4s1.4,0.1,2,0.4c0.6,0.2,1.2,0.6,1.6,1.1
			c0.5,0.5,0.8,1.1,1.1,1.8C505.2,65.1,505.3,65.9,505.3,66.9z M504.2,66.9c0-0.7-0.1-1.4-0.3-2s-0.5-1.1-0.8-1.5
			c-0.3-0.4-0.8-0.7-1.3-0.9c-0.5-0.2-1-0.3-1.7-0.3c-0.6,0-1.2,0.1-1.7,0.3c-0.5,0.2-0.9,0.5-1.3,0.9c-0.3,0.4-0.6,0.9-0.8,1.5
			s-0.3,1.3-0.3,2c0,0.7,0.1,1.4,0.3,2s0.5,1.1,0.8,1.5s0.8,0.7,1.3,1s1,0.3,1.7,0.3c0.6,0,1.2-0.1,1.7-0.3s0.9-0.5,1.3-1
			c0.3-0.4,0.6-0.9,0.8-1.5S504.2,67.6,504.2,66.9z"/>
		<path fill="#122945" d="M508.7,75.3h-1V64.5c0.3-0.1,0.7-0.2,1.2-0.3s1.1-0.1,1.8-0.1c0.6,0,1.2,0.1,1.6,0.3s0.9,0.5,1.3,0.8
			c0.4,0.4,0.6,0.8,0.8,1.3c0.2,0.5,0.3,1.1,0.3,1.8c0,0.6-0.1,1.2-0.2,1.7s-0.4,1-0.7,1.3c-0.3,0.4-0.7,0.7-1.2,0.9
			c-0.5,0.2-1,0.3-1.6,0.3c-0.5,0-1-0.1-1.4-0.2c-0.4-0.2-0.7-0.3-0.9-0.4V75.3z M508.7,70.9c0.1,0.1,0.2,0.2,0.4,0.2
			c0.1,0.1,0.3,0.2,0.5,0.2c0.2,0.1,0.4,0.1,0.6,0.2c0.2,0,0.5,0.1,0.7,0.1c0.5,0,0.9-0.1,1.3-0.3c0.3-0.2,0.6-0.4,0.8-0.7
			c0.2-0.3,0.4-0.7,0.5-1.1c0.1-0.4,0.1-0.8,0.1-1.3c0-1.1-0.3-1.9-0.8-2.5c-0.5-0.6-1.3-0.9-2.1-0.9c-0.5,0-0.9,0-1.2,0.1
			c-0.3,0-0.5,0.1-0.7,0.2V70.9z"/>
		<path fill="#122945" d="M516.4,68.3c0-0.7,0.1-1.3,0.3-1.9c0.2-0.5,0.5-1,0.8-1.3c0.3-0.4,0.7-0.6,1.1-0.8
			c0.4-0.2,0.9-0.3,1.3-0.3c1,0,1.8,0.3,2.4,1c0.6,0.7,0.9,1.7,0.9,3c0,0.1,0,0.2,0,0.3c0,0.1,0,0.2,0,0.2h-5.8c0,1,0.3,1.8,0.7,2.3
			c0.5,0.5,1.2,0.8,2.2,0.8c0.6,0,1-0.1,1.3-0.2c0.3-0.1,0.6-0.2,0.7-0.3l0.2,0.9c-0.1,0.1-0.4,0.2-0.8,0.3s-0.9,0.2-1.4,0.2
			c-0.7,0-1.3-0.1-1.8-0.3c-0.5-0.2-0.9-0.5-1.3-0.9c-0.3-0.4-0.6-0.8-0.7-1.4C516.5,69.5,516.4,68.9,516.4,68.3z M522.3,67.6
			c0-0.9-0.2-1.5-0.6-2s-0.9-0.7-1.6-0.7c-0.4,0-0.7,0.1-1,0.2c-0.3,0.1-0.5,0.3-0.8,0.6c-0.2,0.2-0.4,0.5-0.5,0.9
			c-0.1,0.3-0.2,0.7-0.2,1H522.3z"/>
		<path fill="#122945" d="M528.4,64c0.3,0,0.7,0,1,0.1c0.3,0.1,0.5,0.1,0.6,0.2l-0.2,0.9c-0.1,0-0.3-0.1-0.5-0.1
			c-0.3,0-0.6-0.1-1-0.1c-0.4,0-0.8,0-1.1,0.1c-0.3,0.1-0.4,0.1-0.5,0.2v7.2h-1v-7.8c0.3-0.1,0.6-0.2,1.1-0.4
			C527.2,64.1,527.7,64,528.4,64z"/>
		<path fill="#122945" d="M534.1,64c0.5,0,1,0.1,1.4,0.2c0.4,0.2,0.7,0.4,0.9,0.6s0.4,0.6,0.5,1c0.1,0.4,0.2,0.8,0.2,1.2v5.2
			c-0.1,0-0.3,0.1-0.5,0.1s-0.4,0.1-0.7,0.1s-0.6,0.1-0.9,0.1c-0.3,0-0.7,0-1,0c-0.4,0-0.8,0-1.2-0.1c-0.4-0.1-0.7-0.2-1-0.5
			c-0.3-0.2-0.5-0.5-0.6-0.8S531,70.4,531,70c0-0.4,0.1-0.8,0.3-1.1c0.2-0.3,0.4-0.6,0.7-0.8c0.3-0.2,0.7-0.4,1.1-0.5
			c0.4-0.1,0.9-0.1,1.4-0.1c0.1,0,0.3,0,0.5,0c0.2,0,0.3,0,0.5,0.1s0.3,0.1,0.4,0.1c0.1,0,0.2,0.1,0.2,0.1v-0.5c0-0.3,0-0.6-0.1-0.8
			c0-0.3-0.1-0.5-0.3-0.7c-0.1-0.2-0.3-0.4-0.6-0.5c-0.3-0.1-0.6-0.2-1-0.2c-0.6,0-1.1,0-1.3,0.1c-0.3,0.1-0.5,0.2-0.7,0.2l-0.1-0.9
			c0.2-0.1,0.5-0.2,0.8-0.2C533.1,64,533.5,64,534.1,64z M534.1,71.6c0.4,0,0.8,0,1.1,0s0.6-0.1,0.8-0.1v-2.9
			c-0.1-0.1-0.3-0.1-0.6-0.2s-0.6-0.1-1-0.1c-0.3,0-0.5,0-0.8,0.1c-0.3,0-0.5,0.1-0.8,0.2c-0.2,0.1-0.4,0.3-0.6,0.5
			c-0.1,0.2-0.2,0.5-0.2,0.8c0,0.3,0.1,0.6,0.2,0.8s0.2,0.4,0.4,0.5c0.2,0.1,0.4,0.2,0.7,0.3C533.5,71.6,533.8,71.6,534.1,71.6z"/>
		<path fill="#122945" d="M540.6,64.2h3.3V65h-3.3v4.4c0,0.5,0,0.8,0.1,1.1c0.1,0.3,0.2,0.5,0.3,0.7s0.3,0.3,0.5,0.3
			c0.2,0.1,0.4,0.1,0.7,0.1c0.4,0,0.8,0,1-0.2s0.5-0.2,0.6-0.3l0.3,0.9c-0.1,0.1-0.4,0.2-0.8,0.3c-0.4,0.1-0.8,0.2-1.2,0.2
			c-0.5,0-0.9-0.1-1.3-0.2s-0.6-0.3-0.8-0.6c-0.2-0.3-0.4-0.6-0.4-1c-0.1-0.4-0.1-0.9-0.1-1.4v-7.6l1-0.2V64.2z"/>
		<path fill="#122945" d="M547.1,61.7c0,0.2-0.1,0.4-0.2,0.6s-0.3,0.2-0.5,0.2s-0.4-0.1-0.5-0.2c-0.1-0.1-0.2-0.3-0.2-0.6
			c0-0.2,0.1-0.4,0.2-0.6c0.1-0.1,0.3-0.2,0.5-0.2s0.4,0.1,0.5,0.2C547,61.3,547.1,61.4,547.1,61.7z M546.8,72.4h-1v-8.2h1V72.4z"/>
		<path fill="#122945" d="M556.5,68.3c0,0.6-0.1,1.2-0.3,1.8c-0.2,0.5-0.4,1-0.8,1.3c-0.3,0.4-0.7,0.7-1.2,0.9
			c-0.5,0.2-1,0.3-1.5,0.3c-0.6,0-1.1-0.1-1.5-0.3c-0.5-0.2-0.8-0.5-1.2-0.9c-0.3-0.4-0.6-0.8-0.8-1.3c-0.2-0.5-0.3-1.1-0.3-1.8
			s0.1-1.2,0.3-1.8c0.2-0.5,0.4-1,0.8-1.4c0.3-0.4,0.7-0.7,1.2-0.9s1-0.3,1.5-0.3c0.5,0,1.1,0.1,1.5,0.3s0.8,0.5,1.2,0.9
			c0.3,0.4,0.6,0.8,0.8,1.4C556.5,67,556.5,67.6,556.5,68.3z M555.5,68.3c0-1-0.2-1.8-0.7-2.5c-0.5-0.6-1.1-0.9-1.9-0.9
			c-0.8,0-1.5,0.3-1.9,0.9c-0.5,0.6-0.7,1.4-0.7,2.5c0,1,0.2,1.8,0.7,2.4c0.5,0.6,1.1,0.9,1.9,0.9c0.8,0,1.5-0.3,1.9-0.9
			C555.2,70.1,555.5,69.3,555.5,68.3z"/>
		<path fill="#122945" d="M558.8,64.5c0.3-0.1,0.7-0.2,1.2-0.3c0.5-0.1,1.2-0.2,1.9-0.2c0.6,0,1.1,0.1,1.6,0.3
			c0.4,0.2,0.8,0.4,1,0.8c0.2,0.3,0.4,0.7,0.5,1.2c0.1,0.5,0.2,1,0.2,1.5v4.6h-1v-4.3c0-0.6,0-1.1-0.1-1.5c-0.1-0.4-0.2-0.7-0.4-1
			c-0.2-0.3-0.4-0.4-0.7-0.5c-0.3-0.1-0.7-0.2-1.1-0.2c-0.5,0-0.9,0-1.3,0.1c-0.4,0.1-0.6,0.1-0.7,0.1v7.2h-1V64.5z"/>
	</g>
	<g>
		<path fill="#122945" d="M145.6,172.9c-0.7,0-1.4-0.1-1.9-0.3c-0.5-0.2-0.9-0.5-1.2-0.9c-0.3-0.4-0.5-0.8-0.7-1.4
			c-0.1-0.5-0.2-1.1-0.2-1.7v-6.9h1.1v6.8c0,0.6,0.1,1.1,0.2,1.6c0.1,0.4,0.3,0.8,0.6,1.1c0.3,0.3,0.6,0.5,0.9,0.6
			c0.4,0.1,0.8,0.2,1.2,0.2s0.8-0.1,1.2-0.2c0.4-0.1,0.7-0.3,0.9-0.6c0.3-0.3,0.5-0.6,0.6-1.1c0.1-0.4,0.2-1,0.2-1.6v-6.8h1.1v6.9
			c0,0.6-0.1,1.2-0.2,1.7c-0.1,0.5-0.4,1-0.7,1.4c-0.3,0.4-0.7,0.7-1.2,0.9S146.4,172.9,145.6,172.9z"/>
		<path fill="#122945" d="M158.8,161.7h1.2l-3.6,5.3c0.7,0.9,1.4,1.9,2,2.8c0.7,1,1.2,1.9,1.7,2.8h-1.2c-0.2-0.3-0.4-0.7-0.6-1.1
			c-0.2-0.4-0.5-0.8-0.8-1.2s-0.6-0.9-0.9-1.3s-0.6-0.8-0.9-1.2c-0.3,0.4-0.6,0.8-0.9,1.2c-0.3,0.4-0.6,0.9-0.9,1.3
			c-0.3,0.4-0.6,0.8-0.8,1.2s-0.5,0.7-0.6,1.1h-1.1c0.5-0.9,1.1-1.9,1.7-2.8s1.3-1.9,2-2.8l-3.6-5.3h1.2l3,4.4L158.8,161.7z"/>
		<path fill="#122945" d="M152.7,187.6c0-0.7,0.1-1.3,0.3-1.9c0.2-0.5,0.5-1,0.8-1.3c0.3-0.4,0.7-0.6,1.1-0.8
			c0.4-0.2,0.9-0.3,1.3-0.3c1,0,1.8,0.3,2.4,1c0.6,0.7,0.9,1.7,0.9,3c0,0.1,0,0.2,0,0.3c0,0.1,0,0.2,0,0.2h-5.8c0,1,0.3,1.8,0.7,2.3
			c0.5,0.5,1.2,0.8,2.2,0.8c0.6,0,1-0.1,1.3-0.2c0.3-0.1,0.6-0.2,0.7-0.3l0.2,0.9c-0.1,0.1-0.4,0.2-0.8,0.3s-0.9,0.2-1.4,0.2
			c-0.7,0-1.3-0.1-1.8-0.3c-0.5-0.2-0.9-0.5-1.3-0.9c-0.3-0.4-0.6-0.8-0.7-1.4C152.7,188.8,152.7,188.2,152.7,187.6z M158.5,187
			c0-0.9-0.2-1.5-0.6-2s-0.9-0.7-1.6-0.7c-0.4,0-0.7,0.1-1,0.2c-0.3,0.1-0.5,0.3-0.8,0.6c-0.2,0.2-0.4,0.5-0.5,0.9
			c-0.1,0.3-0.2,0.7-0.2,1H158.5z"/>
		<path fill="#122945" d="M163.5,191c0.6,0,1.1-0.1,1.5-0.3c0.4-0.2,0.6-0.5,0.6-1c0-0.2,0-0.4-0.1-0.6c-0.1-0.2-0.2-0.3-0.3-0.4
			s-0.4-0.2-0.6-0.4c-0.3-0.1-0.6-0.3-1-0.4c-0.3-0.1-0.6-0.3-0.9-0.4s-0.5-0.3-0.7-0.5c-0.2-0.2-0.4-0.4-0.5-0.6
			c-0.1-0.2-0.2-0.5-0.2-0.9c0-0.7,0.3-1.2,0.8-1.6c0.5-0.4,1.2-0.6,2.1-0.6c0.6,0,1,0,1.4,0.1c0.4,0.1,0.6,0.2,0.8,0.3l-0.2,0.9
			c-0.1-0.1-0.3-0.1-0.6-0.3c-0.3-0.1-0.7-0.2-1.3-0.2c-0.2,0-0.5,0-0.7,0.1c-0.2,0-0.4,0.1-0.5,0.2c-0.2,0.1-0.3,0.2-0.4,0.4
			c-0.1,0.2-0.1,0.3-0.1,0.6c0,0.2,0,0.4,0.1,0.6c0.1,0.2,0.2,0.3,0.4,0.4s0.4,0.2,0.6,0.3c0.2,0.1,0.5,0.2,0.8,0.3
			c0.3,0.1,0.6,0.3,0.9,0.4s0.5,0.3,0.8,0.5c0.2,0.2,0.4,0.4,0.5,0.7s0.2,0.6,0.2,1c0,0.7-0.3,1.3-0.8,1.7c-0.6,0.4-1.3,0.6-2.3,0.6
			c-0.7,0-1.3-0.1-1.7-0.2c-0.4-0.1-0.6-0.2-0.8-0.3l0.3-0.9c0,0,0.1,0.1,0.2,0.1c0.1,0,0.2,0.1,0.4,0.2c0.2,0.1,0.4,0.1,0.6,0.2
			C162.9,191,163.2,191,163.5,191z"/>
		<path fill="#122945" d="M169.9,181c0,0.2-0.1,0.4-0.2,0.6s-0.3,0.2-0.5,0.2s-0.4-0.1-0.5-0.2c-0.1-0.1-0.2-0.3-0.2-0.6
			c0-0.2,0.1-0.4,0.2-0.6c0.1-0.1,0.3-0.2,0.5-0.2s0.4,0.1,0.5,0.2C169.8,180.6,169.9,180.8,169.9,181z M169.7,191.7h-1v-8.2h1
			V191.7z"/>
		<path fill="#122945" d="M177.8,190.8c-0.1,0.1-0.2,0.1-0.3,0.2s-0.3,0.1-0.5,0.2c-0.2,0.1-0.4,0.1-0.6,0.2s-0.5,0.1-0.8,0.1
			c-0.5,0-0.9-0.1-1.4-0.2c-0.4-0.1-0.8-0.4-1.2-0.7c-0.3-0.3-0.6-0.7-0.8-1.2c-0.2-0.5-0.3-1.1-0.3-1.8c0-0.6,0.1-1.1,0.3-1.6
			c0.2-0.5,0.4-0.9,0.8-1.3c0.3-0.4,0.7-0.7,1.2-0.9c0.5-0.2,1-0.3,1.6-0.3c0.8,0,1.4,0.1,1.8,0.2c0.5,0.1,0.8,0.2,1.1,0.3v7.5
			c0,1.2-0.3,2.1-1,2.6c-0.6,0.5-1.6,0.8-2.9,0.8c-0.5,0-1,0-1.4-0.1c-0.4-0.1-0.8-0.2-1.1-0.3l0.2-0.9c0.3,0.1,0.6,0.2,1,0.3
			c0.4,0.1,0.9,0.1,1.3,0.1c1,0,1.7-0.2,2.1-0.6c0.4-0.4,0.7-1,0.7-1.9V190.8z M177.7,184.5c-0.2-0.1-0.4-0.1-0.7-0.2
			c-0.3,0-0.7-0.1-1.2-0.1c-0.4,0-0.8,0.1-1.2,0.2s-0.6,0.4-0.9,0.7c-0.2,0.3-0.4,0.6-0.6,1c-0.1,0.4-0.2,0.8-0.2,1.3
			c0,0.5,0.1,1,0.2,1.4c0.1,0.4,0.3,0.7,0.6,0.9c0.2,0.2,0.5,0.4,0.8,0.5c0.3,0.1,0.6,0.2,0.9,0.2c0.5,0,0.9-0.1,1.3-0.2
			c0.4-0.1,0.7-0.3,0.9-0.5V184.5z"/>
		<path fill="#122945" d="M181.5,183.8c0.3-0.1,0.7-0.2,1.2-0.3c0.5-0.1,1.2-0.2,1.9-0.2c0.6,0,1.1,0.1,1.6,0.3
			c0.4,0.2,0.8,0.4,1,0.8c0.2,0.3,0.4,0.7,0.5,1.2c0.1,0.5,0.2,1,0.2,1.5v4.6h-1v-4.3c0-0.6,0-1.1-0.1-1.5c-0.1-0.4-0.2-0.7-0.4-1
			c-0.2-0.3-0.4-0.4-0.7-0.5c-0.3-0.1-0.7-0.2-1.1-0.2c-0.5,0-0.9,0-1.3,0.1c-0.4,0.1-0.6,0.1-0.7,0.1v7.2h-1V183.8z"/>
		<path fill="#122945" d="M151.3,186.3c0,0.9-0.1,1.8-0.4,2.5c-0.3,0.7-0.7,1.3-1.2,1.7c-0.5,0.5-1.2,0.8-1.9,1
			c-0.7,0.2-1.6,0.3-2.4,0.3c-0.4,0-0.9,0-1.4-0.1c-0.5,0-0.9-0.1-1.3-0.2V181c0.4-0.1,0.8-0.2,1.3-0.2c0.5,0,1-0.1,1.4-0.1
			c0.9,0,1.7,0.1,2.4,0.3c0.7,0.2,1.4,0.6,1.9,1c0.5,0.5,0.9,1,1.2,1.7C151.2,184.5,151.3,185.4,151.3,186.3z M143.7,190.8
			c0.1,0,0.2,0,0.5,0.1c0.3,0,0.7,0,1.2,0c0.8,0,1.5-0.1,2.1-0.3c0.6-0.2,1.1-0.5,1.5-0.9c0.4-0.4,0.7-0.9,0.9-1.5
			c0.2-0.6,0.3-1.2,0.3-1.9c0-0.7-0.1-1.4-0.3-1.9c-0.2-0.6-0.5-1.1-0.9-1.5s-0.9-0.7-1.5-0.9s-1.3-0.3-2.1-0.3c-0.6,0-1,0-1.2,0
			c-0.3,0-0.4,0.1-0.5,0.1V190.8z"/>
	</g>
	<g>
		<path fill="#122945" d="M243.5,51.9c0.3,0.9,0.6,1.8,0.9,2.7c0.3,0.8,0.6,1.7,0.9,2.4s0.6,1.6,0.9,2.3s0.6,1.5,1,2.3
			c0.3-0.8,0.6-1.5,0.9-2.3c0.3-0.8,0.6-1.5,0.9-2.3c0.3-0.8,0.6-1.6,0.9-2.5s0.6-1.7,0.9-2.7h1.1c-0.5,1.4-0.9,2.6-1.3,3.7
			c-0.4,1-0.8,2-1.1,2.8c-0.3,0.8-0.6,1.6-0.9,2.3c-0.3,0.7-0.6,1.4-0.9,2.2h-1c-0.3-0.7-0.6-1.5-0.9-2.2c-0.3-0.7-0.6-1.5-1-2.3
			c-0.3-0.8-0.7-1.8-1.1-2.8c-0.4-1-0.8-2.3-1.3-3.7H243.5z"/>
		<path fill="#122945" d="M260.8,55.2c0,0.8-0.2,1.5-0.7,2c-0.4,0.5-1,0.8-1.7,1c0.2,0.2,0.4,0.5,0.7,0.9c0.3,0.4,0.5,0.8,0.8,1.2
			c0.3,0.4,0.6,0.9,0.8,1.3c0.3,0.5,0.5,0.9,0.7,1.3h-1.2c-0.2-0.4-0.5-0.8-0.7-1.3c-0.3-0.4-0.5-0.8-0.8-1.2
			c-0.3-0.4-0.5-0.8-0.8-1.1s-0.5-0.6-0.7-0.9c-0.3,0-0.7,0-1,0h-1.8v4.4h-1.1V52.1c0.4-0.1,0.8-0.2,1.3-0.2c0.5,0,1-0.1,1.4-0.1
			c1.5,0,2.7,0.3,3.4,0.9C260.4,53.3,260.8,54.1,260.8,55.2z M256.3,52.8c-0.4,0-0.8,0-1.1,0c-0.3,0-0.6,0.1-0.8,0.1v4.7h1.5
			c0.5,0,1,0,1.4-0.1c0.4,0,0.8-0.2,1.2-0.3c0.3-0.2,0.6-0.4,0.8-0.7c0.2-0.3,0.3-0.7,0.3-1.3c0-0.5-0.1-0.9-0.3-1.2
			c-0.2-0.3-0.4-0.6-0.7-0.8c-0.3-0.2-0.7-0.3-1.1-0.4C257.2,52.8,256.8,52.8,256.3,52.8z"/>
		<path fill="#122945" d="M252.3,76.5c0,0.9-0.1,1.8-0.4,2.5c-0.3,0.7-0.7,1.3-1.2,1.7c-0.5,0.5-1.2,0.8-1.9,1
			c-0.7,0.2-1.6,0.3-2.4,0.3c-0.4,0-0.9,0-1.4-0.1c-0.5,0-0.9-0.1-1.3-0.2V71.2c0.4-0.1,0.8-0.2,1.3-0.2c0.5,0,1-0.1,1.4-0.1
			c0.9,0,1.7,0.1,2.4,0.3c0.7,0.2,1.4,0.6,1.9,1c0.5,0.5,0.9,1,1.2,1.7C252.1,74.7,252.3,75.6,252.3,76.5z M244.6,81
			c0.1,0,0.2,0,0.5,0.1c0.3,0,0.7,0,1.2,0c0.8,0,1.5-0.1,2.1-0.3c0.6-0.2,1.1-0.5,1.5-0.9c0.4-0.4,0.7-0.9,0.9-1.5
			c0.2-0.6,0.3-1.2,0.3-1.9c0-0.7-0.1-1.4-0.3-1.9c-0.2-0.6-0.5-1.1-0.9-1.5c-0.4-0.4-0.9-0.7-1.5-0.9s-1.3-0.3-2.1-0.3
			c-0.6,0-1,0-1.2,0c-0.3,0-0.4,0.1-0.5,0.1V81z"/>
		<path fill="#122945" d="M254.1,77.9c0-0.7,0.1-1.3,0.3-1.9c0.2-0.5,0.5-1,0.8-1.3c0.3-0.4,0.7-0.6,1.1-0.8
			c0.4-0.2,0.9-0.3,1.3-0.3c1,0,1.8,0.3,2.4,1c0.6,0.7,0.9,1.7,0.9,3c0,0.1,0,0.2,0,0.3c0,0.1,0,0.2,0,0.2h-5.8c0,1,0.3,1.8,0.7,2.3
			c0.5,0.5,1.2,0.8,2.2,0.8c0.6,0,1-0.1,1.3-0.2c0.3-0.1,0.6-0.2,0.7-0.3l0.2,0.9c-0.1,0.1-0.4,0.2-0.8,0.3s-0.9,0.2-1.4,0.2
			c-0.7,0-1.3-0.1-1.8-0.3c-0.5-0.2-0.9-0.5-1.3-0.9c-0.3-0.4-0.6-0.8-0.7-1.4C254.2,79.1,254.1,78.5,254.1,77.9z M260,77.2
			c0-0.9-0.2-1.5-0.6-2s-0.9-0.7-1.6-0.7c-0.4,0-0.7,0.1-1,0.2c-0.3,0.1-0.5,0.3-0.8,0.6c-0.2,0.2-0.4,0.5-0.5,0.9
			c-0.1,0.3-0.2,0.7-0.2,1H260z"/>
		<path fill="#122945" d="M265.8,80.9c0.2-0.5,0.5-1,0.7-1.6s0.5-1.2,0.7-1.8c0.2-0.6,0.4-1.3,0.6-1.9c0.2-0.6,0.3-1.2,0.5-1.8h1
			c-0.2,0.8-0.4,1.5-0.6,2.2c-0.2,0.7-0.5,1.4-0.7,2.1c-0.3,0.7-0.5,1.4-0.8,2s-0.6,1.3-0.8,1.8h-1c-0.3-0.6-0.6-1.2-0.8-1.8
			c-0.3-0.6-0.5-1.3-0.8-2c-0.3-0.7-0.5-1.4-0.7-2.1s-0.4-1.5-0.6-2.2h1.1c0.1,0.6,0.3,1.2,0.5,1.8c0.2,0.6,0.4,1.3,0.6,1.9
			c0.2,0.6,0.4,1.2,0.7,1.8S265.6,80.4,265.8,80.9z"/>
		<path fill="#122945" d="M270.5,77.9c0-0.7,0.1-1.3,0.3-1.9c0.2-0.5,0.5-1,0.8-1.3c0.3-0.4,0.7-0.6,1.1-0.8
			c0.4-0.2,0.9-0.3,1.3-0.3c1,0,1.8,0.3,2.4,1c0.6,0.7,0.9,1.7,0.9,3c0,0.1,0,0.2,0,0.3c0,0.1,0,0.2,0,0.2h-5.8c0,1,0.3,1.8,0.7,2.3
			c0.5,0.5,1.2,0.8,2.2,0.8c0.6,0,1-0.1,1.3-0.2c0.3-0.1,0.6-0.2,0.7-0.3l0.2,0.9c-0.1,0.1-0.4,0.2-0.8,0.3s-0.9,0.2-1.4,0.2
			c-0.7,0-1.3-0.1-1.8-0.3c-0.5-0.2-0.9-0.5-1.3-0.9c-0.3-0.4-0.6-0.8-0.7-1.4C270.5,79.1,270.5,78.5,270.5,77.9z M276.3,77.2
			c0-0.9-0.2-1.5-0.6-2s-0.9-0.7-1.6-0.7c-0.4,0-0.7,0.1-1,0.2c-0.3,0.1-0.5,0.3-0.8,0.6c-0.2,0.2-0.4,0.5-0.5,0.9
			c-0.1,0.3-0.2,0.7-0.2,1H276.3z"/>
		<path fill="#122945" d="M281.7,82.1c-0.3,0-0.7-0.1-0.9-0.1c-0.3-0.1-0.5-0.2-0.7-0.4c-0.2-0.2-0.3-0.4-0.4-0.6s-0.1-0.6-0.1-1
			V69.9l1-0.2V80c0,0.3,0,0.5,0.1,0.6c0,0.2,0.1,0.3,0.2,0.4s0.2,0.2,0.4,0.2c0.2,0,0.3,0.1,0.5,0.1L281.7,82.1z"/>
		<path fill="#122945" d="M290.7,77.9c0,0.6-0.1,1.2-0.3,1.8c-0.2,0.5-0.4,1-0.8,1.3c-0.3,0.4-0.7,0.7-1.2,0.9
			c-0.5,0.2-1,0.3-1.5,0.3c-0.6,0-1.1-0.1-1.5-0.3c-0.5-0.2-0.8-0.5-1.2-0.9c-0.3-0.4-0.6-0.8-0.8-1.3c-0.2-0.5-0.3-1.1-0.3-1.8
			s0.1-1.2,0.3-1.8c0.2-0.5,0.4-1,0.8-1.4c0.3-0.4,0.7-0.7,1.2-0.9s1-0.3,1.5-0.3c0.5,0,1.1,0.1,1.5,0.3s0.8,0.5,1.2,0.9
			c0.3,0.4,0.6,0.8,0.8,1.4C290.6,76.7,290.7,77.3,290.7,77.9z M289.6,77.9c0-1-0.2-1.8-0.7-2.5c-0.5-0.6-1.1-0.9-1.9-0.9
			c-0.8,0-1.5,0.3-1.9,0.9c-0.5,0.6-0.7,1.4-0.7,2.5c0,1,0.2,1.8,0.7,2.4c0.5,0.6,1.1,0.9,1.9,0.9c0.8,0,1.5-0.3,1.9-0.9
			C289.4,79.7,289.6,78.9,289.6,77.9z"/>
		<path fill="#122945" d="M294,84.9h-1V74.1c0.3-0.1,0.7-0.2,1.2-0.3s1.1-0.1,1.8-0.1c0.6,0,1.2,0.1,1.6,0.3s0.9,0.5,1.3,0.8
			c0.4,0.4,0.6,0.8,0.8,1.3c0.2,0.5,0.3,1.1,0.3,1.8c0,0.6-0.1,1.2-0.2,1.7s-0.4,1-0.7,1.3c-0.3,0.4-0.7,0.7-1.2,0.9
			c-0.5,0.2-1,0.3-1.6,0.3c-0.5,0-1-0.1-1.4-0.2c-0.4-0.2-0.7-0.3-0.9-0.4V84.9z M294,80.5c0.1,0.1,0.2,0.2,0.4,0.2
			c0.1,0.1,0.3,0.2,0.5,0.2c0.2,0.1,0.4,0.1,0.6,0.2c0.2,0,0.5,0.1,0.7,0.1c0.5,0,0.9-0.1,1.3-0.3c0.3-0.2,0.6-0.4,0.8-0.7
			c0.2-0.3,0.4-0.7,0.5-1.1c0.1-0.4,0.1-0.8,0.1-1.3c0-1.1-0.3-1.9-0.8-2.5c-0.5-0.6-1.3-0.9-2.1-0.9c-0.5,0-0.9,0-1.2,0.1
			c-0.3,0-0.5,0.1-0.7,0.2V80.5z"/>
		<path fill="#122945" d="M302.2,74.1c0.3-0.1,0.7-0.2,1.2-0.3c0.5-0.1,1.1-0.2,1.9-0.2c1,0,1.8,0.3,2.3,0.9c0.1,0,0.2-0.1,0.3-0.2
			c0.2-0.1,0.3-0.2,0.6-0.3c0.2-0.1,0.5-0.2,0.8-0.3s0.7-0.1,1-0.1c0.6,0,1.1,0.1,1.5,0.3c0.4,0.2,0.7,0.4,0.9,0.8
			c0.2,0.3,0.4,0.7,0.4,1.2c0.1,0.5,0.1,1,0.1,1.5V82h-1v-4.3c0-0.5,0-1-0.1-1.4c0-0.4-0.1-0.7-0.3-1s-0.3-0.5-0.6-0.6
			s-0.6-0.2-1-0.2c-0.3,0-0.6,0-0.9,0.1c-0.3,0.1-0.5,0.1-0.7,0.2c-0.2,0.1-0.3,0.2-0.5,0.3c-0.1,0.1-0.2,0.1-0.3,0.2
			c0.1,0.3,0.2,0.6,0.2,0.9c0,0.3,0.1,0.7,0.1,1.1V82h-1v-4.3c0-0.5,0-1-0.1-1.4c0-0.4-0.1-0.7-0.3-1s-0.4-0.5-0.6-0.6
			s-0.6-0.2-1.1-0.2c-0.5,0-0.9,0-1.3,0.1c-0.3,0.1-0.6,0.1-0.7,0.1V82h-1V74.1z"/>
		<path fill="#122945" d="M315.4,77.9c0-0.7,0.1-1.3,0.3-1.9c0.2-0.5,0.5-1,0.8-1.3c0.3-0.4,0.7-0.6,1.1-0.8
			c0.4-0.2,0.9-0.3,1.3-0.3c1,0,1.8,0.3,2.4,1c0.6,0.7,0.9,1.7,0.9,3c0,0.1,0,0.2,0,0.3c0,0.1,0,0.2,0,0.2h-5.8c0,1,0.3,1.8,0.7,2.3
			c0.5,0.5,1.2,0.8,2.2,0.8c0.6,0,1-0.1,1.3-0.2c0.3-0.1,0.6-0.2,0.7-0.3l0.2,0.9c-0.1,0.1-0.4,0.2-0.8,0.3s-0.9,0.2-1.4,0.2
			c-0.7,0-1.3-0.1-1.8-0.3c-0.5-0.2-0.9-0.5-1.3-0.9c-0.3-0.4-0.6-0.8-0.7-1.4C315.5,79.1,315.4,78.5,315.4,77.9z M321.2,77.2
			c0-0.9-0.2-1.5-0.6-2s-0.9-0.7-1.6-0.7c-0.4,0-0.7,0.1-1,0.2c-0.3,0.1-0.5,0.3-0.8,0.6c-0.2,0.2-0.4,0.5-0.5,0.9
			c-0.1,0.3-0.2,0.7-0.2,1H321.2z"/>
		<path fill="#122945" d="M324.6,74.1c0.3-0.1,0.7-0.2,1.2-0.3c0.5-0.1,1.2-0.2,1.9-0.2c0.6,0,1.1,0.1,1.6,0.3
			c0.4,0.2,0.8,0.4,1,0.8c0.2,0.3,0.4,0.7,0.5,1.2c0.1,0.5,0.2,1,0.2,1.5V82h-1v-4.3c0-0.6,0-1.1-0.1-1.5c-0.1-0.4-0.2-0.7-0.4-1
			c-0.2-0.3-0.4-0.4-0.7-0.5c-0.3-0.1-0.7-0.2-1.1-0.2c-0.5,0-0.9,0-1.3,0.1c-0.4,0.1-0.6,0.1-0.7,0.1V82h-1V74.1z"/>
		<path fill="#122945" d="M334.6,73.8h3.3v0.9h-3.3V79c0,0.5,0,0.8,0.1,1.1c0.1,0.3,0.2,0.5,0.3,0.7s0.3,0.3,0.5,0.3
			c0.2,0.1,0.4,0.1,0.7,0.1c0.4,0,0.8,0,1-0.2s0.5-0.2,0.6-0.3l0.3,0.9c-0.1,0.1-0.4,0.2-0.8,0.3c-0.4,0.1-0.8,0.2-1.2,0.2
			c-0.5,0-0.9-0.1-1.3-0.2s-0.6-0.3-0.8-0.6c-0.2-0.3-0.4-0.6-0.4-1c-0.1-0.4-0.1-0.9-0.1-1.4v-7.6l1-0.2V73.8z"/>
	</g>
</g>
<g id="Livello_3" display="none">
	<rect x="-674.3" y="191.9" display="inline" fill="none" stroke="#1D1D1B" stroke-miterlimit="10" width="76" height="50.6"/>
	
		<circle display="inline" fill="none" stroke="#1D1D1B" stroke-linejoin="bevel" stroke-miterlimit="10" cx="-685.8" cy="205.3" r="17.6"/>
	<circle display="inline" fill="none" stroke="#1D1D1B" stroke-miterlimit="10" cx="-479.3" cy="206.7" r="10.6"/>
	<rect x="-640.4" y="225.2" display="inline" fill="#FFFFFF" stroke="#1D1D1B" stroke-miterlimit="10" width="23.5" height="23.5"/>
	<circle display="inline" fill="none" stroke="#1D1D1B" stroke-miterlimit="10" cx="-653" cy="204.8" r="4"/>
	<path display="inline" fill="#FFFFFF" stroke="#1D1D1B" stroke-miterlimit="10" d="M-658,215.8l0.9,7.6c0.1,0.5,0,1-0.1,1.5
		l-3.1,12.2h3.5v10.3c0,0.9,0.7,1.6,1.6,1.6l0,0c0.9,0,1.6-0.7,1.6-1.6v-10.3h1.1v10.3c0,0.9,0.7,1.6,1.6,1.6h0.1
		c0.9,0,1.6-0.7,1.6-1.6v-10.3h2.9l-2.8-12.3c-0.1-0.4-0.1-0.9-0.1-1.3l0.8-7.9l4.9,6.9c0.6,0.9,1.8,1,2.6,0.4l0,0
		c0.8-0.6,1-1.8,0.3-2.6l-7.1-8.9c-0.5-0.6-1.3-1-2.1-1h-7.2c-1,0-2,0.6-2.4,1.5l-2.9,6.1c-0.4,0.8-0.3,1.8,0.1,2.5l4,6.5"/>
	<rect x="-685.8" y="209.2" display="inline" fill="#FFFFFF" stroke="#1D1D1B" stroke-miterlimit="10" width="13.6" height="67.7"/>
	<polygon display="inline" fill="#FFFFFF" stroke="#1D1D1B" stroke-linejoin="bevel" stroke-miterlimit="10" points="-685.8,276.8 
		-672.2,263.2 -618.2,263.2 -618.2,276.8 	"/>
	<circle display="inline" fill="none" stroke="#1D1D1B" stroke-miterlimit="10" cx="-671.7" cy="271.4" r="1.7"/>
	<line display="inline" fill="none" stroke="#1D1D1B" stroke-miterlimit="10" x1="-676.7" y1="214.2" x2="-672.7" y2="214.2"/>
	<line display="inline" fill="none" stroke="#1D1D1B" stroke-miterlimit="10" x1="-676.7" y1="220.5" x2="-672.7" y2="220.5"/>
	<line display="inline" fill="none" stroke="#1D1D1B" stroke-miterlimit="10" x1="-676.7" y1="226.8" x2="-672.7" y2="226.8"/>
	<line display="inline" fill="none" stroke="#1D1D1B" stroke-miterlimit="10" x1="-676.7" y1="233.2" x2="-672.7" y2="233.2"/>
	<line display="inline" fill="none" stroke="#1D1D1B" stroke-miterlimit="10" x1="-676.7" y1="239.5" x2="-672.7" y2="239.5"/>
	<line display="inline" fill="none" stroke="#1D1D1B" stroke-miterlimit="10" x1="-676.7" y1="245.8" x2="-672.7" y2="245.8"/>
	<line display="inline" fill="none" stroke="#1D1D1B" stroke-miterlimit="10" x1="-676.7" y1="252.2" x2="-672.7" y2="252.2"/>
	<line display="inline" fill="none" stroke="#1D1D1B" stroke-miterlimit="10" x1="-676.7" y1="258.5" x2="-672.7" y2="258.5"/>
	<g display="inline">
		<line fill="none" stroke="#1D1D1B" stroke-linejoin="bevel" x1="-685.8" y1="177.1" x2="-685.8" y2="178.6"/>
		
			<line fill="none" stroke="#1D1D1B" stroke-linejoin="bevel" stroke-dasharray="2.7442,2.7442" x1="-685.8" y1="181.3" x2="-685.8" y2="201.9"/>
		<line fill="none" stroke="#1D1D1B" stroke-linejoin="bevel" x1="-685.8" y1="203.3" x2="-685.8" y2="204.8"/>
	</g>
	<g display="inline">
		<line fill="none" stroke="#1D1D1B" stroke-linejoin="bevel" x1="-708.9" y1="204.8" x2="-707.4" y2="204.8"/>
		
			<line fill="none" stroke="#1D1D1B" stroke-linejoin="bevel" stroke-dasharray="2.9034,2.9034" x1="-704.5" y1="204.8" x2="-665.3" y2="204.8"/>
		<line fill="none" stroke="#1D1D1B" stroke-linejoin="bevel" x1="-663.9" y1="204.8" x2="-662.4" y2="204.8"/>
	</g>
	<g display="inline">
		<line fill="none" stroke="#1D1D1B" stroke-linejoin="bevel" x1="-644.1" y1="204.8" x2="-642.6" y2="204.8"/>
		
			<line fill="none" stroke="#1D1D1B" stroke-linejoin="bevel" stroke-dasharray="3,3" x1="-639.6" y1="204.8" x2="-605.1" y2="204.8"/>
		<line fill="none" stroke="#1D1D1B" stroke-linejoin="bevel" x1="-603.6" y1="204.8" x2="-602.1" y2="204.8"/>
	</g>
	<path display="inline" fill="#FFFFFF" stroke="#1D1D1B" stroke-miterlimit="10" d="M-575.1,181.5h4.3c0,2.3-1.9,4.3-4.3,4.3
		c-2.3,0-4.3-1.9-4.3-4.3c0,0,0,0,0-0.1L-575.1,181.5z"/>
	<polyline display="inline" fill="#FFFFFF" stroke="#1D1D1B" stroke-miterlimit="10" points="-586.9,238.5 -589.4,248.7 
		-570.9,248.7 -573.3,235.6 	"/>
	<g display="inline">
		<g>
			<path fill="#FFFFFF" stroke="#1D1D1B" stroke-miterlimit="10" d="M-588,229.3l-3.3-1.1c-0.9-0.3-1.9,0.1-2.4,1l-7.2,15.1
				c-0.5,1.1,0,2.3,1.2,2.7l1,0.3c0.9,0.3,1.9-0.1,2.3-1l5.7-11.4c0.4-0.9,1.4-1.3,2.3-1l7.9,2.6c0.8,0.3,1.8-0.1,2.2-0.8l7.2-11.2
				c0.6-0.9,0.3-2.1-0.6-2.7l-7.3-4.5c-1-0.6-2.4-0.2-2.8,1l-3.4,8.3c-0.3,0.7-1.1,1.1-1.8,0.8l-6.3-2.1c-0.9-0.3-1.9,0.1-2.4,1
				l-7.2,15.1c-0.5,1.1,0,2.3,1.2,2.7l0.6,0.2"/>
			<path fill="none" stroke="#1D1D1B" stroke-miterlimit="10" d="M-576.6,233.1c-0.5,0.9-1.6,1.2-2.5,0.9l-8.1-2.7
				c-0.6-0.2-1-0.8-0.9-1.5l0.1-0.7c0.1-0.8,0.9-1.2,1.7-1l6.2,2c0.7,0.2,1.4-0.1,1.8-0.7l3.2-5.4"/>
			<path fill="none" stroke="#1D1D1B" stroke-miterlimit="10" d="M-593.3,225.2c-0.6-0.2-0.9-0.8-0.8-1.3l0.1-0.6
				c0.1-0.7,0.9-1.1,1.5-0.9l5.7,1.9c0.6,0.2,1.3,0,1.6-0.6l3.3-5.3"/>
			<path fill="none" stroke="#1D1D1B" stroke-miterlimit="10" d="M-590.4,235.5l2.2,2.6l8.8,2.9c1.2,0.4,2.5-0.1,3.2-1.1l6.8-10
				c1-1.5,0.3-3.6-1.4-4.2l-0.4-0.1"/>
			<path fill="none" stroke="#1D1D1B" stroke-miterlimit="10" d="M-577.3,211.8c-0.9,2.9,0.6,6,3.5,6.9s6-0.6,6.9-3.5
				c0.9-2.9-0.6-6-3.5-6.9c-1.3-0.4-2.6-0.3-3.7,0.1"/>
		</g>
		<g>
			<path fill="none" stroke="#1D1D1B" stroke-miterlimit="10" d="M-579.7,210.5l3.2,1.7c0.1,0,0.1,0.1,0.2,0.1l2.9,2.1
				c0.7,0.5,1.6,0.3,2-0.4l1-1.6c0.4-0.7,0.2-1.5-0.5-1.9l-6.4-3.9c-0.7-0.4-1.5-0.2-1.9,0.5l-1,1.6
				C-580.6,209.2-580.4,210.2-579.7,210.5z"/>
			<line fill="none" stroke="#1D1D1B" stroke-miterlimit="10" x1="-570.8" y1="212.8" x2="-566.7" y2="215.3"/>
			<line fill="none" stroke="#1D1D1B" stroke-miterlimit="10" x1="-571.6" y1="214.1" x2="-567.5" y2="216.6"/>
			
				<ellipse transform="matrix(0.5 -0.866 0.866 0.5 -471.0853 -383.2828)" fill="#FFFFFF" stroke="#1D1D1B" stroke-miterlimit="10" cx="-567.5" cy="216.3" rx="2.8" ry="2.5"/>
		</g>
	</g>
	<line display="inline" fill="none" stroke="#1D1D1B" stroke-miterlimit="10" x1="-580.1" y1="189.3" x2="-588.1" y2="208.7"/>
	<line display="inline" fill="none" stroke="#1D1D1B" stroke-miterlimit="10" x1="-570.9" y1="189.3" x2="-564.1" y2="208"/>
	<path display="inline" fill="#FFFFFF" stroke="#1D1D1B" stroke-miterlimit="10" d="M-549.9,262.4l2.6,1.7v6.6
		c2.7-1,4.5-3.6,4.5-6.6c0-2.9-1.8-5.5-4.3-6.6v-22.4c2.5-1.1,4.3-3.6,4.3-6.6c0-3-1.9-5.6-4.5-6.6v6.6l-2.6,1.7l-2.6-1.7v-6.6
		c-2.7,1-4.5,3.6-4.5,6.6c0,2.9,1.8,5.5,4.3,6.6v22.4c-2.5,1.1-4.3,3.6-4.3,6.6c0,3,1.9,5.6,4.5,6.6V264L-549.9,262.4z"/>
	<rect x="-498" y="212.3" display="inline" fill="#FFFFFF" stroke="#1D1D1B" stroke-miterlimit="10" width="39.1" height="30"/>
	<path display="inline" fill="none" stroke="#1D1D1B" stroke-miterlimit="10" d="M-458.9,219.9l8,5.1c4.6,2.9,3.6,9.9-1.6,11.4
		l-6.3,1.8"/>
	<line display="inline" fill="none" stroke="#1D1D1B" stroke-miterlimit="10" x1="-498" y1="219.9" x2="-509.8" y2="229.1"/>
	<path display="inline" fill="none" stroke="#1D1D1B" stroke-miterlimit="10" d="M-504.1,237.3h-12.3v-2.4c0-3.2,2.6-5.8,5.8-5.8
		h0.7c3.2,0,5.8,2.6,5.8,5.8V237.3z"/>
	<path display="inline" fill="none" stroke="#1D1D1B" stroke-miterlimit="10" d="M-501.8,241.8h-16.7l0,0c0-2.5,2-4.5,4.5-4.5h7.8
		C-503.8,237.3-501.8,239.3-501.8,241.8L-501.8,241.8z"/>
	<circle display="inline" fill="none" stroke="#1D1D1B" stroke-miterlimit="10" cx="-478.5" cy="227.3" r="3.2"/>
	<line display="inline" fill="none" stroke="#1D1D1B" stroke-miterlimit="10" x1="-525.5" y1="242.3" x2="-433.8" y2="242.3"/>
	<line display="inline" fill="none" stroke="#1D1D1B" stroke-miterlimit="10" x1="-449.3" y1="234.2" x2="-431.6" y2="234.2"/>
	<line display="inline" fill="none" stroke="#1D1D1B" stroke-miterlimit="10" x1="-504.1" y1="234.2" x2="-498" y2="234.2"/>
	<line display="inline" fill="none" stroke="#1D1D1B" stroke-miterlimit="10" x1="-525.5" y1="234.2" x2="-516.4" y2="234.2"/>
	<path display="inline" fill="none" stroke="#1D1D1B" stroke-linejoin="bevel" stroke-miterlimit="10" d="M-581.6,256.2l-0.2,23.2
		c0,3.5,2.8,6.3,6.3,6.3h19.3c3.5,0,6.3-2.8,6.3-6.3v-4.4"/>
	<path display="inline" fill="none" stroke="#1D1D1B" stroke-linejoin="bevel" stroke-miterlimit="10" d="M-549.9,208.7"/>
	<path display="inline" fill="none" stroke="#1D1D1B" stroke-linejoin="bevel" stroke-miterlimit="10" d="M-546.3,202.6
		c-1.1-0.6-2.3-1-3.6-1c-3.9,0-7.1,3.2-7.1,7.1c0,3.9,3.2,7.1,7.1,7.1s7.1-3.2,7.1-7.1"/>
	<polyline display="inline" fill="none" stroke="#1D1D1B" stroke-miterlimit="10" points="-548.5,203.7 -546.3,202.6 -546.7,200.3 	
		"/>
	<line display="inline" fill="none" stroke="#1D1D1B" stroke-miterlimit="10" x1="-530.3" y1="281.7" x2="-530.3" y2="287"/>
	<circle display="inline" fill="none" stroke="#1D1D1B" stroke-miterlimit="10" cx="-525" cy="284.4" r="2.2"/>
	<circle display="inline" fill="none" stroke="#1D1D1B" stroke-miterlimit="10" cx="-538" cy="294.7" r="2.2"/>
	<line display="inline" fill="none" stroke="#1D1D1B" stroke-miterlimit="10" x1="-509" y1="294.2" x2="-509" y2="299.6"/>
	<line display="inline" fill="none" stroke="#1D1D1B" stroke-miterlimit="10" x1="-498.1" y1="294.2" x2="-498.1" y2="299.6"/>
	<line display="inline" fill="none" stroke="#1D1D1B" stroke-miterlimit="10" x1="-494.6" y1="294.2" x2="-494.6" y2="299.6"/>
	<line display="inline" fill="none" stroke="#1D1D1B" stroke-miterlimit="10" x1="-491" y1="294.2" x2="-491" y2="299.6"/>
	<line display="inline" fill="none" stroke="#1D1D1B" stroke-miterlimit="10" x1="-510.8" y1="281.7" x2="-510.8" y2="287"/>
	<line display="inline" fill="none" stroke="#1D1D1B" stroke-miterlimit="10" x1="-458.9" y1="198.9" x2="-458.9" y2="204.2"/>
	<line display="inline" fill="none" stroke="#1D1D1B" stroke-miterlimit="10" x1="-449.3" y1="206.1" x2="-449.3" y2="211.4"/>
	<line display="inline" fill="none" stroke="#1D1D1B" stroke-miterlimit="10" x1="-446.6" y1="208.8" x2="-446.6" y2="214.2"/>
	<line display="inline" fill="none" stroke="#1D1D1B" stroke-miterlimit="10" x1="-453.5" y1="258.7" x2="-453.5" y2="264"/>
	<line display="inline" fill="none" stroke="#1D1D1B" stroke-miterlimit="10" x1="-508.1" y1="206.5" x2="-508.1" y2="211.8"/>
	<line display="inline" fill="none" stroke="#1D1D1B" stroke-miterlimit="10" x1="-508.1" y1="214.6" x2="-508.1" y2="220"/>
	<circle display="inline" fill="none" stroke="#1D1D1B" stroke-miterlimit="10" cx="-503.7" cy="296.9" r="2.2"/>
	<line display="inline" fill="none" stroke="#1D1D1B" stroke-miterlimit="10" x1="-495.3" y1="254.3" x2="-495.3" y2="259.6"/>
	<line display="inline" fill="none" stroke="#1D1D1B" stroke-miterlimit="10" x1="-495.3" y1="268.3" x2="-495.3" y2="273.7"/>
	<line display="inline" fill="none" stroke="#1D1D1B" stroke-miterlimit="10" x1="-484.4" y1="254.3" x2="-484.4" y2="259.6"/>
	<line display="inline" fill="none" stroke="#1D1D1B" stroke-miterlimit="10" x1="-458.9" y1="254.3" x2="-458.9" y2="259.6"/>
	<circle display="inline" fill="none" stroke="#1D1D1B" stroke-miterlimit="10" cx="-490" cy="256.9" r="2.2"/>
	<line display="inline" fill="none" stroke="#1D1D1B" stroke-miterlimit="10" x1="-495" y1="190.9" x2="-495" y2="196.3"/>
	<circle display="inline" fill="none" stroke="#1D1D1B" stroke-miterlimit="10" cx="-500.6" cy="193.6" r="2.2"/>
	<circle display="inline" fill="none" stroke="#1D1D1B" stroke-miterlimit="10" cx="-500.6" cy="201.6" r="2.2"/>
	<circle display="inline" fill="none" stroke="#1D1D1B" stroke-miterlimit="10" cx="-508.1" cy="201.6" r="2.2"/>
	<line display="inline" fill="none" stroke="#1D1D1B" stroke-miterlimit="10" x1="-514.2" y1="198.9" x2="-514.2" y2="204.2"/>
	<line display="inline" fill="none" stroke="#1D1D1B" stroke-miterlimit="10" x1="-514.2" y1="214.6" x2="-514.2" y2="220"/>
	<circle display="inline" fill="none" stroke="#1D1D1B" stroke-miterlimit="10" cx="-514.2" cy="209.2" r="2.2"/>
	<line display="inline" fill="none" stroke="#1D1D1B" stroke-miterlimit="10" x1="-519.7" y1="307.2" x2="-519.7" y2="312.5"/>
	<circle display="inline" fill="none" stroke="#1D1D1B" stroke-miterlimit="10" cx="-519.7" cy="302.2" r="2.2"/>
	<line display="inline" fill="none" stroke="#1D1D1B" stroke-miterlimit="10" x1="-525.9" y1="299.6" x2="-525.9" y2="304.9"/>
	<circle display="inline" fill="none" stroke="#1D1D1B" stroke-miterlimit="10" cx="-525.9" cy="309.8" r="2.2"/>
	<path display="inline" fill="none" stroke="#1D1D1B" stroke-miterlimit="10" d="M-538,263.2h43.7c4,0,7.2,3.2,7.2,7.2v2
		c0,4,3.2,7.2,7.2,7.2h2.9c4,0,7.2-3.2,7.2-7.2V243"/>
</g>
</svg>
